<svg xmlns="http://www.w3.org/2000/svg" version="1.1" viewBox="0 0 3000 2722" width="3000" height="2722">
<!--ITEM 1--><g><defs><clipPath id="clip-path-id-viewbox-item-1"><rect x="0.0" y="0.0" width="569.8" height="468.4"/></clipPath></defs><g transform="translate(108.0 192.0) rotate(0.0 1405.5 1155.5) scale(4.933309933309934 4.933817250213493)"><g clip-path="url(#clip-path-id-viewbox-item-1)" transform="translate(-0.0 -0.0)"><g>
	<path d="M1.2,254.6C13.5,124.4,99.5,31.1,249.8,5.2c183.5-30.9,330.4,79.2,319.5,281.4c-7,130.5-134,169-286,180.2   C72.1,482.3-11.2,384.7,1.2,254.6z" style="fill:#FECE2F;"/>
</g>
</g></g></g><!--ITEM 2--><g><defs><clipPath id="clip-path-id-viewbox-item-2"><rect x="0.0" y="0.0" width="168.708" height="180.528"/></clipPath></defs><g transform="translate(1083.0 1858.0) rotate(-125.19953189817261 242.0 258.5) scale(2.868862176067525 2.86382167863157)"><g clip-path="url(#clip-path-id-viewbox-item-2)" transform="translate(-0.0 -0.0)"><title>coin</title><g id="Layer_2-i2" data-name="Layer 2"><g id="coin-i2"><path d="M154.837,21.593a29.046,29.046,0,0,0-13.511-5.666c-2.808-3.293-7.845-4.6-11.283-7.264-22.131-17.094-66.247,2.906-98.6,44.7S-9.231,142.9,12.9,160.044a75.388,75.388,0,0,0,22.567,10.992,27.756,27.756,0,0,0,2.227,1.937c22.131,17.1,66.247-2.905,98.6-44.7C168.639,86.436,176.92,38.688,154.837,21.593Z" style="fill:#fece2f"/><path d="M43.99,58.639C70.866,23.918,105.927,4.208,129.7,8.373,107.476-8.334,63.6,11.714,31.4,53.312-.95,95.1-9.279,142.852,12.852,160A74.349,74.349,0,0,0,33.772,170.5a59.253,59.253,0,0,1-8.329-5.182C3.312,148.228,11.641,100.431,43.99,58.639Z" style="fill:#fff"/><path d="M110.818,21.206c-12.591,5.424-25.86,14.576-38.3,26.779l44.7,101.26a177.827,177.827,0,0,0,19.08-20.969,175.836,175.836,0,0,0,11.622-16.949Z" style="fill:#fff"/><path d="M32.755,107.017l30.751,71.574c9.007-1.211,18.886-4.891,28.958-10.751L51.108,73.264A161.41,161.41,0,0,0,32.755,107.017Z" style="fill:#fff"/><path d="M57.162,180.528c-7.942,0-14.867-2.131-20.388-6.441-11.138-8.62-15.3-24.794-11.67-45.472,3.535-20.387,14.188-42.809,29.975-63.245s34.867-36.319,53.705-44.842c19.128-8.669,35.835-8.717,46.973-.1s15.3,24.794,11.671,45.472c-3.535,20.387-14.189,42.809-29.976,63.245h0c-15.787,20.387-34.867,36.319-53.7,44.842C74.111,178.349,65.152,180.528,57.162,180.528ZM135.273,16.9c-7.554,0-16.126,2.082-25.327,6.247-18.4,8.329-37.094,23.971-52.591,44.019C25.539,108.276,17.113,155.2,38.566,171.811s64.746-3.341,96.562-44.407h0c15.5-20.048,25.956-42.034,29.394-61.937,3.39-19.612-.338-34.77-10.6-42.663C148.881,18.833,142.585,16.9,135.273,16.9Z" style="fill:#1a1a1a"/><path d="M62.1,166.484a21.713,21.713,0,0,1-13.511-4.213c-8.184-6.344-10.605-19.031-6.828-35.641,3.729-16.272,12.978-34.48,26-51.381,13.075-16.852,28.426-30.411,43.2-38.063,15.158-7.845,27.99-8.668,36.223-2.324s10.6,19.031,6.828,35.642c-3.729,16.271-12.978,34.479-26.005,51.38-13.075,16.852-28.426,30.411-43.2,38.063C76.387,164.257,68.687,166.484,62.1,166.484ZM133.675,33.506c-6.1,0-13.366,2.082-21.356,6.247-14.431,7.506-29.443,20.726-42.228,37.24s-21.84,34.382-25.472,50.218c-3.535,15.448-1.5,27.07,5.763,32.687s19.031,4.7,33.075-2.615c14.431-7.506,29.443-20.726,42.228-37.24h0c12.784-16.561,21.84-34.382,25.472-50.217,3.535-15.448,1.5-27.071-5.763-32.688A18.588,18.588,0,0,0,133.675,33.506Z" style="fill:#1a1a1a"/><path d="M146.314,35.976a5.937,5.937,0,0,0-.678-.485c9.2,15.836-.339,49.153-24.019,79.71-26.344,34.044-60.388,52.01-76.707,40.629a18.409,18.409,0,0,0,4.552,5.279c15.981,12.4,50.654-5.569,77.385-40.145S162.295,48.373,146.314,35.976Z" style="fill:#1a1a1a"/><path d="M40.6,176.363a1.359,1.359,0,0,1-.726-.194L8.493,158.688a1.144,1.144,0,0,1-.435-.388C-7.875,137.429.406,94.039,27.719,55.1,40.551,36.8,56.532,21.3,72.61,11.521,88.639,1.738,104.135-1.99,116.242,1.012a.683.683,0,0,1,.29.1L148.2,15.976a1.451,1.451,0,0,1-1.259,2.615L115.418,3.772C91.593-2.039,55.757,20.237,30.14,56.751,17.162,75.2,8.106,95.54,4.619,113.99c-3.39,17.87-1.4,32.882,5.618,42.276L41.375,173.6a1.486,1.486,0,0,1,.581,1.985A1.667,1.667,0,0,1,40.6,176.363Z" style="fill:#1a1a1a"/><path d="M129.317,17.186a1.491,1.491,0,0,1-.63-.145l-13.123-6.247L100.6,3.772a1.451,1.451,0,1,1,1.259-2.615l14.964,7.022,13.123,6.247a1.451,1.451,0,0,1,.678,1.937A1.515,1.515,0,0,1,129.317,17.186Z" style="fill:#1a1a1a"/><path d="M111.4,22.513a1.491,1.491,0,0,1-.63-.145l-13.026-6.1L82.779,9.245a1.452,1.452,0,0,1,1.259-2.616L99,13.651l13.027,6.1a1.451,1.451,0,0,1,.677,1.937A1.514,1.514,0,0,1,111.4,22.513Z" style="fill:#1a1a1a"/><path d="M97.259,29.729a1.492,1.492,0,0,1-.63-.146L69.123,16.654a1.451,1.451,0,1,1,1.259-2.615L97.888,26.968a1.452,1.452,0,0,1,.678,1.938A1.428,1.428,0,0,1,97.259,29.729Z" style="fill:#1a1a1a"/><path d="M86.508,37.09a1.492,1.492,0,0,1-.63-.146L58.711,24.353a1.463,1.463,0,1,1,1.211-2.663L87.089,34.281a1.473,1.473,0,0,1-.581,2.809Z" style="fill:#1a1a1a"/><path d="M74.692,46.533a1.676,1.676,0,0,1-.63-.146L46.992,33.893A1.463,1.463,0,0,1,48.2,31.23l27.07,12.494a1.473,1.473,0,0,1-.581,2.809Z" style="fill:#1a1a1a"/><path d="M65.249,55.249a1.491,1.491,0,0,1-.63-.145L39.728,43.385a1.451,1.451,0,0,1,1.259-2.615L65.878,52.489a1.451,1.451,0,0,1,.678,1.937A1.377,1.377,0,0,1,65.249,55.249Z" style="fill:#1a1a1a"/><path d="M56.1,65.661a1.486,1.486,0,0,1-.629-.145L31.108,54.135a1.463,1.463,0,0,1,1.211-2.663l24.358,11.38a1.473,1.473,0,0,1-.581,2.809Z" style="fill:#1a1a1a"/><path d="M49.268,75.637a1.488,1.488,0,0,1-.629-.146L24.329,64.063a1.451,1.451,0,1,1,1.259-2.615L49.9,72.876a1.451,1.451,0,0,1,.678,1.937A1.515,1.515,0,0,1,49.268,75.637Z" style="fill:#1a1a1a"/><path d="M43.506,85.855a1.492,1.492,0,0,1-.63-.146L17.985,74.087A1.463,1.463,0,0,1,19.2,71.424L44.087,83.046a1.473,1.473,0,0,1-.581,2.809Z" style="fill:#1a1a1a"/><path d="M37.549,96.847a1.483,1.483,0,0,1-.629-.145L12.561,85.08a1.451,1.451,0,1,1,1.259-2.615L38.179,94.087a1.451,1.451,0,0,1,.678,1.937A1.38,1.38,0,0,1,37.549,96.847Z" style="fill:#1a1a1a"/><path d="M32.852,107.743a1.491,1.491,0,0,1-.63-.145L7.864,95.976a1.451,1.451,0,1,1,1.259-2.615l24.358,11.622a1.451,1.451,0,0,1,.678,1.937A1.426,1.426,0,0,1,32.852,107.743Z" style="fill:#1a1a1a"/><path d="M29.075,118.494a1.491,1.491,0,0,1-.63-.145L4.522,106.968a1.451,1.451,0,1,1,1.26-2.615L29.7,115.734a1.451,1.451,0,0,1,.678,1.937A1.379,1.379,0,0,1,29.075,118.494Z" style="fill:#1a1a1a"/><path d="M26.363,130.116a1.491,1.491,0,0,1-.63-.145L1.811,118.591a1.451,1.451,0,0,1,1.259-2.615l23.922,11.38a1.451,1.451,0,0,1,.678,1.937A1.377,1.377,0,0,1,26.363,130.116Z" style="fill:#1a1a1a"/><path d="M25.249,142.077a1.491,1.491,0,0,1-.63-.145L1.181,130.843a1.451,1.451,0,1,1,1.259-2.615l23.438,11.089a1.451,1.451,0,0,1,.678,1.937A1.425,1.425,0,0,1,25.249,142.077Z" style="fill:#1a1a1a"/><path d="M25.685,152.15a1.491,1.491,0,0,1-.63-.145L1.617,140.383a1.452,1.452,0,0,1,1.259-2.616L26.314,149.39a1.45,1.45,0,0,1,.678,1.937A1.428,1.428,0,0,1,25.685,152.15Z" style="fill:#1a1a1a"/><path d="M28.639,162.9a1.708,1.708,0,0,1-.678-.146L4.377,150.794a1.44,1.44,0,1,1,1.308-2.566l23.583,11.961a1.406,1.406,0,0,1,.63,1.937A1.346,1.346,0,0,1,28.639,162.9Z" style="fill:#1a1a1a"/></g></g></g></g></g><!--ITEM 3--><g><defs><clipPath id="clip-path-id-viewbox-item-3"><rect x="0.0" y="0.0" width="168.708" height="180.528"/></clipPath></defs><g transform="translate(1086.0 1736.0) rotate(-125.19953189817261 241.5 258.5) scale(2.862934774877303 2.86382167863157)"><g clip-path="url(#clip-path-id-viewbox-item-3)" transform="translate(-0.0 -0.0)"><title>coin</title><g id="Layer_2-i3" data-name="Layer 2"><g id="coin-i3"><path d="M154.837,21.593a29.046,29.046,0,0,0-13.511-5.666c-2.808-3.293-7.845-4.6-11.283-7.264-22.131-17.094-66.247,2.906-98.6,44.7S-9.231,142.9,12.9,160.044a75.388,75.388,0,0,0,22.567,10.992,27.756,27.756,0,0,0,2.227,1.937c22.131,17.1,66.247-2.905,98.6-44.7C168.639,86.436,176.92,38.688,154.837,21.593Z" style="fill:#fece2f"/><path d="M43.99,58.639C70.866,23.918,105.927,4.208,129.7,8.373,107.476-8.334,63.6,11.714,31.4,53.312-.95,95.1-9.279,142.852,12.852,160A74.349,74.349,0,0,0,33.772,170.5a59.253,59.253,0,0,1-8.329-5.182C3.312,148.228,11.641,100.431,43.99,58.639Z" style="fill:#fff"/><path d="M110.818,21.206c-12.591,5.424-25.86,14.576-38.3,26.779l44.7,101.26a177.827,177.827,0,0,0,19.08-20.969,175.836,175.836,0,0,0,11.622-16.949Z" style="fill:#fff"/><path d="M32.755,107.017l30.751,71.574c9.007-1.211,18.886-4.891,28.958-10.751L51.108,73.264A161.41,161.41,0,0,0,32.755,107.017Z" style="fill:#fff"/><path d="M57.162,180.528c-7.942,0-14.867-2.131-20.388-6.441-11.138-8.62-15.3-24.794-11.67-45.472,3.535-20.387,14.188-42.809,29.975-63.245s34.867-36.319,53.705-44.842c19.128-8.669,35.835-8.717,46.973-.1s15.3,24.794,11.671,45.472c-3.535,20.387-14.189,42.809-29.976,63.245h0c-15.787,20.387-34.867,36.319-53.7,44.842C74.111,178.349,65.152,180.528,57.162,180.528ZM135.273,16.9c-7.554,0-16.126,2.082-25.327,6.247-18.4,8.329-37.094,23.971-52.591,44.019C25.539,108.276,17.113,155.2,38.566,171.811s64.746-3.341,96.562-44.407h0c15.5-20.048,25.956-42.034,29.394-61.937,3.39-19.612-.338-34.77-10.6-42.663C148.881,18.833,142.585,16.9,135.273,16.9Z" style="fill:#1a1a1a"/><path d="M62.1,166.484a21.713,21.713,0,0,1-13.511-4.213c-8.184-6.344-10.605-19.031-6.828-35.641,3.729-16.272,12.978-34.48,26-51.381,13.075-16.852,28.426-30.411,43.2-38.063,15.158-7.845,27.99-8.668,36.223-2.324s10.6,19.031,6.828,35.642c-3.729,16.271-12.978,34.479-26.005,51.38-13.075,16.852-28.426,30.411-43.2,38.063C76.387,164.257,68.687,166.484,62.1,166.484ZM133.675,33.506c-6.1,0-13.366,2.082-21.356,6.247-14.431,7.506-29.443,20.726-42.228,37.24s-21.84,34.382-25.472,50.218c-3.535,15.448-1.5,27.07,5.763,32.687s19.031,4.7,33.075-2.615c14.431-7.506,29.443-20.726,42.228-37.24h0c12.784-16.561,21.84-34.382,25.472-50.217,3.535-15.448,1.5-27.071-5.763-32.688A18.588,18.588,0,0,0,133.675,33.506Z" style="fill:#1a1a1a"/><path d="M146.314,35.976a5.937,5.937,0,0,0-.678-.485c9.2,15.836-.339,49.153-24.019,79.71-26.344,34.044-60.388,52.01-76.707,40.629a18.409,18.409,0,0,0,4.552,5.279c15.981,12.4,50.654-5.569,77.385-40.145S162.295,48.373,146.314,35.976Z" style="fill:#1a1a1a"/><path d="M40.6,176.363a1.359,1.359,0,0,1-.726-.194L8.493,158.688a1.144,1.144,0,0,1-.435-.388C-7.875,137.429.406,94.039,27.719,55.1,40.551,36.8,56.532,21.3,72.61,11.521,88.639,1.738,104.135-1.99,116.242,1.012a.683.683,0,0,1,.29.1L148.2,15.976a1.451,1.451,0,0,1-1.259,2.615L115.418,3.772C91.593-2.039,55.757,20.237,30.14,56.751,17.162,75.2,8.106,95.54,4.619,113.99c-3.39,17.87-1.4,32.882,5.618,42.276L41.375,173.6a1.486,1.486,0,0,1,.581,1.985A1.667,1.667,0,0,1,40.6,176.363Z" style="fill:#1a1a1a"/><path d="M129.317,17.186a1.491,1.491,0,0,1-.63-.145l-13.123-6.247L100.6,3.772a1.451,1.451,0,1,1,1.259-2.615l14.964,7.022,13.123,6.247a1.451,1.451,0,0,1,.678,1.937A1.515,1.515,0,0,1,129.317,17.186Z" style="fill:#1a1a1a"/><path d="M111.4,22.513a1.491,1.491,0,0,1-.63-.145l-13.026-6.1L82.779,9.245a1.452,1.452,0,0,1,1.259-2.616L99,13.651l13.027,6.1a1.451,1.451,0,0,1,.677,1.937A1.514,1.514,0,0,1,111.4,22.513Z" style="fill:#1a1a1a"/><path d="M97.259,29.729a1.492,1.492,0,0,1-.63-.146L69.123,16.654a1.451,1.451,0,1,1,1.259-2.615L97.888,26.968a1.452,1.452,0,0,1,.678,1.938A1.428,1.428,0,0,1,97.259,29.729Z" style="fill:#1a1a1a"/><path d="M86.508,37.09a1.492,1.492,0,0,1-.63-.146L58.711,24.353a1.463,1.463,0,1,1,1.211-2.663L87.089,34.281a1.473,1.473,0,0,1-.581,2.809Z" style="fill:#1a1a1a"/><path d="M74.692,46.533a1.676,1.676,0,0,1-.63-.146L46.992,33.893A1.463,1.463,0,0,1,48.2,31.23l27.07,12.494a1.473,1.473,0,0,1-.581,2.809Z" style="fill:#1a1a1a"/><path d="M65.249,55.249a1.491,1.491,0,0,1-.63-.145L39.728,43.385a1.451,1.451,0,0,1,1.259-2.615L65.878,52.489a1.451,1.451,0,0,1,.678,1.937A1.377,1.377,0,0,1,65.249,55.249Z" style="fill:#1a1a1a"/><path d="M56.1,65.661a1.486,1.486,0,0,1-.629-.145L31.108,54.135a1.463,1.463,0,0,1,1.211-2.663l24.358,11.38a1.473,1.473,0,0,1-.581,2.809Z" style="fill:#1a1a1a"/><path d="M49.268,75.637a1.488,1.488,0,0,1-.629-.146L24.329,64.063a1.451,1.451,0,1,1,1.259-2.615L49.9,72.876a1.451,1.451,0,0,1,.678,1.937A1.515,1.515,0,0,1,49.268,75.637Z" style="fill:#1a1a1a"/><path d="M43.506,85.855a1.492,1.492,0,0,1-.63-.146L17.985,74.087A1.463,1.463,0,0,1,19.2,71.424L44.087,83.046a1.473,1.473,0,0,1-.581,2.809Z" style="fill:#1a1a1a"/><path d="M37.549,96.847a1.483,1.483,0,0,1-.629-.145L12.561,85.08a1.451,1.451,0,1,1,1.259-2.615L38.179,94.087a1.451,1.451,0,0,1,.678,1.937A1.38,1.38,0,0,1,37.549,96.847Z" style="fill:#1a1a1a"/><path d="M32.852,107.743a1.491,1.491,0,0,1-.63-.145L7.864,95.976a1.451,1.451,0,1,1,1.259-2.615l24.358,11.622a1.451,1.451,0,0,1,.678,1.937A1.426,1.426,0,0,1,32.852,107.743Z" style="fill:#1a1a1a"/><path d="M29.075,118.494a1.491,1.491,0,0,1-.63-.145L4.522,106.968a1.451,1.451,0,1,1,1.26-2.615L29.7,115.734a1.451,1.451,0,0,1,.678,1.937A1.379,1.379,0,0,1,29.075,118.494Z" style="fill:#1a1a1a"/><path d="M26.363,130.116a1.491,1.491,0,0,1-.63-.145L1.811,118.591a1.451,1.451,0,0,1,1.259-2.615l23.922,11.38a1.451,1.451,0,0,1,.678,1.937A1.377,1.377,0,0,1,26.363,130.116Z" style="fill:#1a1a1a"/><path d="M25.249,142.077a1.491,1.491,0,0,1-.63-.145L1.181,130.843a1.451,1.451,0,1,1,1.259-2.615l23.438,11.089a1.451,1.451,0,0,1,.678,1.937A1.425,1.425,0,0,1,25.249,142.077Z" style="fill:#1a1a1a"/><path d="M25.685,152.15a1.491,1.491,0,0,1-.63-.145L1.617,140.383a1.452,1.452,0,0,1,1.259-2.616L26.314,149.39a1.45,1.45,0,0,1,.678,1.937A1.428,1.428,0,0,1,25.685,152.15Z" style="fill:#1a1a1a"/><path d="M28.639,162.9a1.708,1.708,0,0,1-.678-.146L4.377,150.794a1.44,1.44,0,1,1,1.308-2.566l23.583,11.961a1.406,1.406,0,0,1,.63,1.937A1.346,1.346,0,0,1,28.639,162.9Z" style="fill:#1a1a1a"/></g></g></g></g></g><!--ITEM 4--><g><defs><clipPath id="clip-path-id-viewbox-item-4"><rect x="0.0" y="0.0" width="168.708" height="180.528"/></clipPath></defs><g transform="translate(764.0 1919.0) rotate(124.62846871778282 -185.0 199.0) scale(-2.193138440382199 2.204644154923336)"><g clip-path="url(#clip-path-id-viewbox-item-4)" transform="translate(-0.0 -0.0)"><title>coin</title><g id="Layer_2-i4" data-name="Layer 2"><g id="coin-i4"><path d="M154.837,21.593a29.046,29.046,0,0,0-13.511-5.666c-2.808-3.293-7.845-4.6-11.283-7.264-22.131-17.094-66.247,2.906-98.6,44.7S-9.231,142.9,12.9,160.044a75.388,75.388,0,0,0,22.567,10.992,27.756,27.756,0,0,0,2.227,1.937c22.131,17.1,66.247-2.905,98.6-44.7C168.639,86.436,176.92,38.688,154.837,21.593Z" style="fill:#fece2f"/><path d="M43.99,58.639C70.866,23.918,105.927,4.208,129.7,8.373,107.476-8.334,63.6,11.714,31.4,53.312-.95,95.1-9.279,142.852,12.852,160A74.349,74.349,0,0,0,33.772,170.5a59.253,59.253,0,0,1-8.329-5.182C3.312,148.228,11.641,100.431,43.99,58.639Z" style="fill:#fff"/><path d="M110.818,21.206c-12.591,5.424-25.86,14.576-38.3,26.779l44.7,101.26a177.827,177.827,0,0,0,19.08-20.969,175.836,175.836,0,0,0,11.622-16.949Z" style="fill:#fff"/><path d="M32.755,107.017l30.751,71.574c9.007-1.211,18.886-4.891,28.958-10.751L51.108,73.264A161.41,161.41,0,0,0,32.755,107.017Z" style="fill:#fff"/><path d="M57.162,180.528c-7.942,0-14.867-2.131-20.388-6.441-11.138-8.62-15.3-24.794-11.67-45.472,3.535-20.387,14.188-42.809,29.975-63.245s34.867-36.319,53.705-44.842c19.128-8.669,35.835-8.717,46.973-.1s15.3,24.794,11.671,45.472c-3.535,20.387-14.189,42.809-29.976,63.245h0c-15.787,20.387-34.867,36.319-53.7,44.842C74.111,178.349,65.152,180.528,57.162,180.528ZM135.273,16.9c-7.554,0-16.126,2.082-25.327,6.247-18.4,8.329-37.094,23.971-52.591,44.019C25.539,108.276,17.113,155.2,38.566,171.811s64.746-3.341,96.562-44.407h0c15.5-20.048,25.956-42.034,29.394-61.937,3.39-19.612-.338-34.77-10.6-42.663C148.881,18.833,142.585,16.9,135.273,16.9Z" style="fill:#1a1a1a"/><path d="M62.1,166.484a21.713,21.713,0,0,1-13.511-4.213c-8.184-6.344-10.605-19.031-6.828-35.641,3.729-16.272,12.978-34.48,26-51.381,13.075-16.852,28.426-30.411,43.2-38.063,15.158-7.845,27.99-8.668,36.223-2.324s10.6,19.031,6.828,35.642c-3.729,16.271-12.978,34.479-26.005,51.38-13.075,16.852-28.426,30.411-43.2,38.063C76.387,164.257,68.687,166.484,62.1,166.484ZM133.675,33.506c-6.1,0-13.366,2.082-21.356,6.247-14.431,7.506-29.443,20.726-42.228,37.24s-21.84,34.382-25.472,50.218c-3.535,15.448-1.5,27.07,5.763,32.687s19.031,4.7,33.075-2.615c14.431-7.506,29.443-20.726,42.228-37.24h0c12.784-16.561,21.84-34.382,25.472-50.217,3.535-15.448,1.5-27.071-5.763-32.688A18.588,18.588,0,0,0,133.675,33.506Z" style="fill:#1a1a1a"/><path d="M146.314,35.976a5.937,5.937,0,0,0-.678-.485c9.2,15.836-.339,49.153-24.019,79.71-26.344,34.044-60.388,52.01-76.707,40.629a18.409,18.409,0,0,0,4.552,5.279c15.981,12.4,50.654-5.569,77.385-40.145S162.295,48.373,146.314,35.976Z" style="fill:#1a1a1a"/><path d="M40.6,176.363a1.359,1.359,0,0,1-.726-.194L8.493,158.688a1.144,1.144,0,0,1-.435-.388C-7.875,137.429.406,94.039,27.719,55.1,40.551,36.8,56.532,21.3,72.61,11.521,88.639,1.738,104.135-1.99,116.242,1.012a.683.683,0,0,1,.29.1L148.2,15.976a1.451,1.451,0,0,1-1.259,2.615L115.418,3.772C91.593-2.039,55.757,20.237,30.14,56.751,17.162,75.2,8.106,95.54,4.619,113.99c-3.39,17.87-1.4,32.882,5.618,42.276L41.375,173.6a1.486,1.486,0,0,1,.581,1.985A1.667,1.667,0,0,1,40.6,176.363Z" style="fill:#1a1a1a"/><path d="M129.317,17.186a1.491,1.491,0,0,1-.63-.145l-13.123-6.247L100.6,3.772a1.451,1.451,0,1,1,1.259-2.615l14.964,7.022,13.123,6.247a1.451,1.451,0,0,1,.678,1.937A1.515,1.515,0,0,1,129.317,17.186Z" style="fill:#1a1a1a"/><path d="M111.4,22.513a1.491,1.491,0,0,1-.63-.145l-13.026-6.1L82.779,9.245a1.452,1.452,0,0,1,1.259-2.616L99,13.651l13.027,6.1a1.451,1.451,0,0,1,.677,1.937A1.514,1.514,0,0,1,111.4,22.513Z" style="fill:#1a1a1a"/><path d="M97.259,29.729a1.492,1.492,0,0,1-.63-.146L69.123,16.654a1.451,1.451,0,1,1,1.259-2.615L97.888,26.968a1.452,1.452,0,0,1,.678,1.938A1.428,1.428,0,0,1,97.259,29.729Z" style="fill:#1a1a1a"/><path d="M86.508,37.09a1.492,1.492,0,0,1-.63-.146L58.711,24.353a1.463,1.463,0,1,1,1.211-2.663L87.089,34.281a1.473,1.473,0,0,1-.581,2.809Z" style="fill:#1a1a1a"/><path d="M74.692,46.533a1.676,1.676,0,0,1-.63-.146L46.992,33.893A1.463,1.463,0,0,1,48.2,31.23l27.07,12.494a1.473,1.473,0,0,1-.581,2.809Z" style="fill:#1a1a1a"/><path d="M65.249,55.249a1.491,1.491,0,0,1-.63-.145L39.728,43.385a1.451,1.451,0,0,1,1.259-2.615L65.878,52.489a1.451,1.451,0,0,1,.678,1.937A1.377,1.377,0,0,1,65.249,55.249Z" style="fill:#1a1a1a"/><path d="M56.1,65.661a1.486,1.486,0,0,1-.629-.145L31.108,54.135a1.463,1.463,0,0,1,1.211-2.663l24.358,11.38a1.473,1.473,0,0,1-.581,2.809Z" style="fill:#1a1a1a"/><path d="M49.268,75.637a1.488,1.488,0,0,1-.629-.146L24.329,64.063a1.451,1.451,0,1,1,1.259-2.615L49.9,72.876a1.451,1.451,0,0,1,.678,1.937A1.515,1.515,0,0,1,49.268,75.637Z" style="fill:#1a1a1a"/><path d="M43.506,85.855a1.492,1.492,0,0,1-.63-.146L17.985,74.087A1.463,1.463,0,0,1,19.2,71.424L44.087,83.046a1.473,1.473,0,0,1-.581,2.809Z" style="fill:#1a1a1a"/><path d="M37.549,96.847a1.483,1.483,0,0,1-.629-.145L12.561,85.08a1.451,1.451,0,1,1,1.259-2.615L38.179,94.087a1.451,1.451,0,0,1,.678,1.937A1.38,1.38,0,0,1,37.549,96.847Z" style="fill:#1a1a1a"/><path d="M32.852,107.743a1.491,1.491,0,0,1-.63-.145L7.864,95.976a1.451,1.451,0,1,1,1.259-2.615l24.358,11.622a1.451,1.451,0,0,1,.678,1.937A1.426,1.426,0,0,1,32.852,107.743Z" style="fill:#1a1a1a"/><path d="M29.075,118.494a1.491,1.491,0,0,1-.63-.145L4.522,106.968a1.451,1.451,0,1,1,1.26-2.615L29.7,115.734a1.451,1.451,0,0,1,.678,1.937A1.379,1.379,0,0,1,29.075,118.494Z" style="fill:#1a1a1a"/><path d="M26.363,130.116a1.491,1.491,0,0,1-.63-.145L1.811,118.591a1.451,1.451,0,0,1,1.259-2.615l23.922,11.38a1.451,1.451,0,0,1,.678,1.937A1.377,1.377,0,0,1,26.363,130.116Z" style="fill:#1a1a1a"/><path d="M25.249,142.077a1.491,1.491,0,0,1-.63-.145L1.181,130.843a1.451,1.451,0,1,1,1.259-2.615l23.438,11.089a1.451,1.451,0,0,1,.678,1.937A1.425,1.425,0,0,1,25.249,142.077Z" style="fill:#1a1a1a"/><path d="M25.685,152.15a1.491,1.491,0,0,1-.63-.145L1.617,140.383a1.452,1.452,0,0,1,1.259-2.616L26.314,149.39a1.45,1.45,0,0,1,.678,1.937A1.428,1.428,0,0,1,25.685,152.15Z" style="fill:#1a1a1a"/><path d="M28.639,162.9a1.708,1.708,0,0,1-.678-.146L4.377,150.794a1.44,1.44,0,1,1,1.308-2.566l23.583,11.961a1.406,1.406,0,0,1,.63,1.937A1.346,1.346,0,0,1,28.639,162.9Z" style="fill:#1a1a1a"/></g></g></g></g></g><!--ITEM 5--><g><defs><clipPath id="clip-path-id-viewbox-item-5"><rect x="0.0" y="0.0" width="168.708" height="180.528"/></clipPath></defs><g transform="translate(1961.0 1850.0) rotate(-121.64333150837766 241.5 258.5) scale(2.862934774877303 2.86382167863157)"><g clip-path="url(#clip-path-id-viewbox-item-5)" transform="translate(-0.0 -0.0)"><title>coin</title><g id="Layer_2-i5" data-name="Layer 2"><g id="coin-i5"><path d="M154.837,21.593a29.046,29.046,0,0,0-13.511-5.666c-2.808-3.293-7.845-4.6-11.283-7.264-22.131-17.094-66.247,2.906-98.6,44.7S-9.231,142.9,12.9,160.044a75.388,75.388,0,0,0,22.567,10.992,27.756,27.756,0,0,0,2.227,1.937c22.131,17.1,66.247-2.905,98.6-44.7C168.639,86.436,176.92,38.688,154.837,21.593Z" style="fill:#fece2f"/><path d="M43.99,58.639C70.866,23.918,105.927,4.208,129.7,8.373,107.476-8.334,63.6,11.714,31.4,53.312-.95,95.1-9.279,142.852,12.852,160A74.349,74.349,0,0,0,33.772,170.5a59.253,59.253,0,0,1-8.329-5.182C3.312,148.228,11.641,100.431,43.99,58.639Z" style="fill:#fff"/><path d="M110.818,21.206c-12.591,5.424-25.86,14.576-38.3,26.779l44.7,101.26a177.827,177.827,0,0,0,19.08-20.969,175.836,175.836,0,0,0,11.622-16.949Z" style="fill:#fff"/><path d="M32.755,107.017l30.751,71.574c9.007-1.211,18.886-4.891,28.958-10.751L51.108,73.264A161.41,161.41,0,0,0,32.755,107.017Z" style="fill:#fff"/><path d="M57.162,180.528c-7.942,0-14.867-2.131-20.388-6.441-11.138-8.62-15.3-24.794-11.67-45.472,3.535-20.387,14.188-42.809,29.975-63.245s34.867-36.319,53.705-44.842c19.128-8.669,35.835-8.717,46.973-.1s15.3,24.794,11.671,45.472c-3.535,20.387-14.189,42.809-29.976,63.245h0c-15.787,20.387-34.867,36.319-53.7,44.842C74.111,178.349,65.152,180.528,57.162,180.528ZM135.273,16.9c-7.554,0-16.126,2.082-25.327,6.247-18.4,8.329-37.094,23.971-52.591,44.019C25.539,108.276,17.113,155.2,38.566,171.811s64.746-3.341,96.562-44.407h0c15.5-20.048,25.956-42.034,29.394-61.937,3.39-19.612-.338-34.77-10.6-42.663C148.881,18.833,142.585,16.9,135.273,16.9Z" style="fill:#1a1a1a"/><path d="M62.1,166.484a21.713,21.713,0,0,1-13.511-4.213c-8.184-6.344-10.605-19.031-6.828-35.641,3.729-16.272,12.978-34.48,26-51.381,13.075-16.852,28.426-30.411,43.2-38.063,15.158-7.845,27.99-8.668,36.223-2.324s10.6,19.031,6.828,35.642c-3.729,16.271-12.978,34.479-26.005,51.38-13.075,16.852-28.426,30.411-43.2,38.063C76.387,164.257,68.687,166.484,62.1,166.484ZM133.675,33.506c-6.1,0-13.366,2.082-21.356,6.247-14.431,7.506-29.443,20.726-42.228,37.24s-21.84,34.382-25.472,50.218c-3.535,15.448-1.5,27.07,5.763,32.687s19.031,4.7,33.075-2.615c14.431-7.506,29.443-20.726,42.228-37.24h0c12.784-16.561,21.84-34.382,25.472-50.217,3.535-15.448,1.5-27.071-5.763-32.688A18.588,18.588,0,0,0,133.675,33.506Z" style="fill:#1a1a1a"/><path d="M146.314,35.976a5.937,5.937,0,0,0-.678-.485c9.2,15.836-.339,49.153-24.019,79.71-26.344,34.044-60.388,52.01-76.707,40.629a18.409,18.409,0,0,0,4.552,5.279c15.981,12.4,50.654-5.569,77.385-40.145S162.295,48.373,146.314,35.976Z" style="fill:#1a1a1a"/><path d="M40.6,176.363a1.359,1.359,0,0,1-.726-.194L8.493,158.688a1.144,1.144,0,0,1-.435-.388C-7.875,137.429.406,94.039,27.719,55.1,40.551,36.8,56.532,21.3,72.61,11.521,88.639,1.738,104.135-1.99,116.242,1.012a.683.683,0,0,1,.29.1L148.2,15.976a1.451,1.451,0,0,1-1.259,2.615L115.418,3.772C91.593-2.039,55.757,20.237,30.14,56.751,17.162,75.2,8.106,95.54,4.619,113.99c-3.39,17.87-1.4,32.882,5.618,42.276L41.375,173.6a1.486,1.486,0,0,1,.581,1.985A1.667,1.667,0,0,1,40.6,176.363Z" style="fill:#1a1a1a"/><path d="M129.317,17.186a1.491,1.491,0,0,1-.63-.145l-13.123-6.247L100.6,3.772a1.451,1.451,0,1,1,1.259-2.615l14.964,7.022,13.123,6.247a1.451,1.451,0,0,1,.678,1.937A1.515,1.515,0,0,1,129.317,17.186Z" style="fill:#1a1a1a"/><path d="M111.4,22.513a1.491,1.491,0,0,1-.63-.145l-13.026-6.1L82.779,9.245a1.452,1.452,0,0,1,1.259-2.616L99,13.651l13.027,6.1a1.451,1.451,0,0,1,.677,1.937A1.514,1.514,0,0,1,111.4,22.513Z" style="fill:#1a1a1a"/><path d="M97.259,29.729a1.492,1.492,0,0,1-.63-.146L69.123,16.654a1.451,1.451,0,1,1,1.259-2.615L97.888,26.968a1.452,1.452,0,0,1,.678,1.938A1.428,1.428,0,0,1,97.259,29.729Z" style="fill:#1a1a1a"/><path d="M86.508,37.09a1.492,1.492,0,0,1-.63-.146L58.711,24.353a1.463,1.463,0,1,1,1.211-2.663L87.089,34.281a1.473,1.473,0,0,1-.581,2.809Z" style="fill:#1a1a1a"/><path d="M74.692,46.533a1.676,1.676,0,0,1-.63-.146L46.992,33.893A1.463,1.463,0,0,1,48.2,31.23l27.07,12.494a1.473,1.473,0,0,1-.581,2.809Z" style="fill:#1a1a1a"/><path d="M65.249,55.249a1.491,1.491,0,0,1-.63-.145L39.728,43.385a1.451,1.451,0,0,1,1.259-2.615L65.878,52.489a1.451,1.451,0,0,1,.678,1.937A1.377,1.377,0,0,1,65.249,55.249Z" style="fill:#1a1a1a"/><path d="M56.1,65.661a1.486,1.486,0,0,1-.629-.145L31.108,54.135a1.463,1.463,0,0,1,1.211-2.663l24.358,11.38a1.473,1.473,0,0,1-.581,2.809Z" style="fill:#1a1a1a"/><path d="M49.268,75.637a1.488,1.488,0,0,1-.629-.146L24.329,64.063a1.451,1.451,0,1,1,1.259-2.615L49.9,72.876a1.451,1.451,0,0,1,.678,1.937A1.515,1.515,0,0,1,49.268,75.637Z" style="fill:#1a1a1a"/><path d="M43.506,85.855a1.492,1.492,0,0,1-.63-.146L17.985,74.087A1.463,1.463,0,0,1,19.2,71.424L44.087,83.046a1.473,1.473,0,0,1-.581,2.809Z" style="fill:#1a1a1a"/><path d="M37.549,96.847a1.483,1.483,0,0,1-.629-.145L12.561,85.08a1.451,1.451,0,1,1,1.259-2.615L38.179,94.087a1.451,1.451,0,0,1,.678,1.937A1.38,1.38,0,0,1,37.549,96.847Z" style="fill:#1a1a1a"/><path d="M32.852,107.743a1.491,1.491,0,0,1-.63-.145L7.864,95.976a1.451,1.451,0,1,1,1.259-2.615l24.358,11.622a1.451,1.451,0,0,1,.678,1.937A1.426,1.426,0,0,1,32.852,107.743Z" style="fill:#1a1a1a"/><path d="M29.075,118.494a1.491,1.491,0,0,1-.63-.145L4.522,106.968a1.451,1.451,0,1,1,1.26-2.615L29.7,115.734a1.451,1.451,0,0,1,.678,1.937A1.379,1.379,0,0,1,29.075,118.494Z" style="fill:#1a1a1a"/><path d="M26.363,130.116a1.491,1.491,0,0,1-.63-.145L1.811,118.591a1.451,1.451,0,0,1,1.259-2.615l23.922,11.38a1.451,1.451,0,0,1,.678,1.937A1.377,1.377,0,0,1,26.363,130.116Z" style="fill:#1a1a1a"/><path d="M25.249,142.077a1.491,1.491,0,0,1-.63-.145L1.181,130.843a1.451,1.451,0,1,1,1.259-2.615l23.438,11.089a1.451,1.451,0,0,1,.678,1.937A1.425,1.425,0,0,1,25.249,142.077Z" style="fill:#1a1a1a"/><path d="M25.685,152.15a1.491,1.491,0,0,1-.63-.145L1.617,140.383a1.452,1.452,0,0,1,1.259-2.616L26.314,149.39a1.45,1.45,0,0,1,.678,1.937A1.428,1.428,0,0,1,25.685,152.15Z" style="fill:#1a1a1a"/><path d="M28.639,162.9a1.708,1.708,0,0,1-.678-.146L4.377,150.794a1.44,1.44,0,1,1,1.308-2.566l23.583,11.961a1.406,1.406,0,0,1,.63,1.937A1.346,1.346,0,0,1,28.639,162.9Z" style="fill:#1a1a1a"/></g></g></g></g></g><!--ITEM 6--><g><defs><clipPath id="clip-path-id-crop-item-6"><rect transform="scale(0.32020406278855035 0.3191090909090909)" x="52" y="0.0" width="1031.0" height="592.0"/></clipPath><clipPath id="clip-path-id-viewbox-item-6"><rect x="0.0" y="0.0" width="346.781" height="193.061"/></clipPath></defs><g clip-path="url(#clip-path-id-crop-item-6)" transform="translate(1492.0 631.0) rotate(0.0 541.5 302.5) scale(3.123008469322137 3.1337245740983417)"><g clip-path="url(#clip-path-id-viewbox-item-6)" transform="translate(-0.0 -0.0)"><path style="fill:#1a1a1a;" d="M335.296,0.113l-71.548,10.686c-8.065,1.205-11.345,10.987-5.621,16.767l17.609,17.782l-7.128,7.113  l-36.528,36.487l-36.458,36.563l-26.479,26.708L123.7,90.998c-1.007-1.344-2.337-2.557-3.892-3.435  c-6.012-3.394-13.636-1.271-17.03,4.74l-35.001,62.002L53.53,126.832c-0.74-1.412-1.792-2.764-3.092-3.848  c-5.301-4.42-13.183-3.707-17.603,1.595l0,0c-5.675,10.071-11.276,20.122-16.835,30.23c-2.776,5.053-5.538,10.114-8.26,15.202  c-1.36,2.544-2.712,5.093-4.035,7.661c-0.66,1.285-1.315,2.572-1.952,3.872c-0.625,1.3-1.281,2.605-1.753,3.97  c0.921-1.098,1.972-2.058,3.01-3.042c1.044-0.975,2.104-1.935,3.169-2.891c2.131-1.91,4.288-3.796,6.449-5.676  c4.325-3.758,8.686-7.482,13.057-11.195c4.228-3.587,8.471-7.167,12.721-10.734l17.806,34.338c1.078,2.088,2.752,3.889,4.952,5.131  c6.012,3.394,13.636,1.271,17.03-4.74l36.896-65.359l42.641,57.447c0.244,0.356,0.515,0.714,0.802,1.05  c4.315,5.05,11.906,5.646,16.956,1.331l0.785-0.671l39.26-33.545l39.159-33.654l39.089-33.729l8.539-7.376l16.302,16.463  c5.768,5.825,15.747,2.626,16.989-5.445l11.049-71.779C347.681,4.823,341.954-0.881,335.296,0.113z"/>
</g></g></g><!--ITEM 7--><g><defs><clipPath id="clip-path-id-viewbox-item-7"><rect x="0.0" y="0.0" width="168.708" height="180.528"/></clipPath></defs><g transform="translate(2375.0 1686.0) rotate(125.83606488146289 -241.5 258.5) scale(-2.862934774877303 2.86382167863157)"><g clip-path="url(#clip-path-id-viewbox-item-7)" transform="translate(-0.0 -0.0)"><title>coin</title><g id="Layer_2-i7" data-name="Layer 2"><g id="coin-i7"><path d="M154.837,21.593a29.046,29.046,0,0,0-13.511-5.666c-2.808-3.293-7.845-4.6-11.283-7.264-22.131-17.094-66.247,2.906-98.6,44.7S-9.231,142.9,12.9,160.044a75.388,75.388,0,0,0,22.567,10.992,27.756,27.756,0,0,0,2.227,1.937c22.131,17.1,66.247-2.905,98.6-44.7C168.639,86.436,176.92,38.688,154.837,21.593Z" style="fill:#fece2f"/><path d="M43.99,58.639C70.866,23.918,105.927,4.208,129.7,8.373,107.476-8.334,63.6,11.714,31.4,53.312-.95,95.1-9.279,142.852,12.852,160A74.349,74.349,0,0,0,33.772,170.5a59.253,59.253,0,0,1-8.329-5.182C3.312,148.228,11.641,100.431,43.99,58.639Z" style="fill:#fff"/><path d="M110.818,21.206c-12.591,5.424-25.86,14.576-38.3,26.779l44.7,101.26a177.827,177.827,0,0,0,19.08-20.969,175.836,175.836,0,0,0,11.622-16.949Z" style="fill:#fff"/><path d="M32.755,107.017l30.751,71.574c9.007-1.211,18.886-4.891,28.958-10.751L51.108,73.264A161.41,161.41,0,0,0,32.755,107.017Z" style="fill:#fff"/><path d="M57.162,180.528c-7.942,0-14.867-2.131-20.388-6.441-11.138-8.62-15.3-24.794-11.67-45.472,3.535-20.387,14.188-42.809,29.975-63.245s34.867-36.319,53.705-44.842c19.128-8.669,35.835-8.717,46.973-.1s15.3,24.794,11.671,45.472c-3.535,20.387-14.189,42.809-29.976,63.245h0c-15.787,20.387-34.867,36.319-53.7,44.842C74.111,178.349,65.152,180.528,57.162,180.528ZM135.273,16.9c-7.554,0-16.126,2.082-25.327,6.247-18.4,8.329-37.094,23.971-52.591,44.019C25.539,108.276,17.113,155.2,38.566,171.811s64.746-3.341,96.562-44.407h0c15.5-20.048,25.956-42.034,29.394-61.937,3.39-19.612-.338-34.77-10.6-42.663C148.881,18.833,142.585,16.9,135.273,16.9Z" style="fill:#1a1a1a"/><path d="M62.1,166.484a21.713,21.713,0,0,1-13.511-4.213c-8.184-6.344-10.605-19.031-6.828-35.641,3.729-16.272,12.978-34.48,26-51.381,13.075-16.852,28.426-30.411,43.2-38.063,15.158-7.845,27.99-8.668,36.223-2.324s10.6,19.031,6.828,35.642c-3.729,16.271-12.978,34.479-26.005,51.38-13.075,16.852-28.426,30.411-43.2,38.063C76.387,164.257,68.687,166.484,62.1,166.484ZM133.675,33.506c-6.1,0-13.366,2.082-21.356,6.247-14.431,7.506-29.443,20.726-42.228,37.24s-21.84,34.382-25.472,50.218c-3.535,15.448-1.5,27.07,5.763,32.687s19.031,4.7,33.075-2.615c14.431-7.506,29.443-20.726,42.228-37.24h0c12.784-16.561,21.84-34.382,25.472-50.217,3.535-15.448,1.5-27.071-5.763-32.688A18.588,18.588,0,0,0,133.675,33.506Z" style="fill:#1a1a1a"/><path d="M146.314,35.976a5.937,5.937,0,0,0-.678-.485c9.2,15.836-.339,49.153-24.019,79.71-26.344,34.044-60.388,52.01-76.707,40.629a18.409,18.409,0,0,0,4.552,5.279c15.981,12.4,50.654-5.569,77.385-40.145S162.295,48.373,146.314,35.976Z" style="fill:#1a1a1a"/><path d="M40.6,176.363a1.359,1.359,0,0,1-.726-.194L8.493,158.688a1.144,1.144,0,0,1-.435-.388C-7.875,137.429.406,94.039,27.719,55.1,40.551,36.8,56.532,21.3,72.61,11.521,88.639,1.738,104.135-1.99,116.242,1.012a.683.683,0,0,1,.29.1L148.2,15.976a1.451,1.451,0,0,1-1.259,2.615L115.418,3.772C91.593-2.039,55.757,20.237,30.14,56.751,17.162,75.2,8.106,95.54,4.619,113.99c-3.39,17.87-1.4,32.882,5.618,42.276L41.375,173.6a1.486,1.486,0,0,1,.581,1.985A1.667,1.667,0,0,1,40.6,176.363Z" style="fill:#1a1a1a"/><path d="M129.317,17.186a1.491,1.491,0,0,1-.63-.145l-13.123-6.247L100.6,3.772a1.451,1.451,0,1,1,1.259-2.615l14.964,7.022,13.123,6.247a1.451,1.451,0,0,1,.678,1.937A1.515,1.515,0,0,1,129.317,17.186Z" style="fill:#1a1a1a"/><path d="M111.4,22.513a1.491,1.491,0,0,1-.63-.145l-13.026-6.1L82.779,9.245a1.452,1.452,0,0,1,1.259-2.616L99,13.651l13.027,6.1a1.451,1.451,0,0,1,.677,1.937A1.514,1.514,0,0,1,111.4,22.513Z" style="fill:#1a1a1a"/><path d="M97.259,29.729a1.492,1.492,0,0,1-.63-.146L69.123,16.654a1.451,1.451,0,1,1,1.259-2.615L97.888,26.968a1.452,1.452,0,0,1,.678,1.938A1.428,1.428,0,0,1,97.259,29.729Z" style="fill:#1a1a1a"/><path d="M86.508,37.09a1.492,1.492,0,0,1-.63-.146L58.711,24.353a1.463,1.463,0,1,1,1.211-2.663L87.089,34.281a1.473,1.473,0,0,1-.581,2.809Z" style="fill:#1a1a1a"/><path d="M74.692,46.533a1.676,1.676,0,0,1-.63-.146L46.992,33.893A1.463,1.463,0,0,1,48.2,31.23l27.07,12.494a1.473,1.473,0,0,1-.581,2.809Z" style="fill:#1a1a1a"/><path d="M65.249,55.249a1.491,1.491,0,0,1-.63-.145L39.728,43.385a1.451,1.451,0,0,1,1.259-2.615L65.878,52.489a1.451,1.451,0,0,1,.678,1.937A1.377,1.377,0,0,1,65.249,55.249Z" style="fill:#1a1a1a"/><path d="M56.1,65.661a1.486,1.486,0,0,1-.629-.145L31.108,54.135a1.463,1.463,0,0,1,1.211-2.663l24.358,11.38a1.473,1.473,0,0,1-.581,2.809Z" style="fill:#1a1a1a"/><path d="M49.268,75.637a1.488,1.488,0,0,1-.629-.146L24.329,64.063a1.451,1.451,0,1,1,1.259-2.615L49.9,72.876a1.451,1.451,0,0,1,.678,1.937A1.515,1.515,0,0,1,49.268,75.637Z" style="fill:#1a1a1a"/><path d="M43.506,85.855a1.492,1.492,0,0,1-.63-.146L17.985,74.087A1.463,1.463,0,0,1,19.2,71.424L44.087,83.046a1.473,1.473,0,0,1-.581,2.809Z" style="fill:#1a1a1a"/><path d="M37.549,96.847a1.483,1.483,0,0,1-.629-.145L12.561,85.08a1.451,1.451,0,1,1,1.259-2.615L38.179,94.087a1.451,1.451,0,0,1,.678,1.937A1.38,1.38,0,0,1,37.549,96.847Z" style="fill:#1a1a1a"/><path d="M32.852,107.743a1.491,1.491,0,0,1-.63-.145L7.864,95.976a1.451,1.451,0,1,1,1.259-2.615l24.358,11.622a1.451,1.451,0,0,1,.678,1.937A1.426,1.426,0,0,1,32.852,107.743Z" style="fill:#1a1a1a"/><path d="M29.075,118.494a1.491,1.491,0,0,1-.63-.145L4.522,106.968a1.451,1.451,0,1,1,1.26-2.615L29.7,115.734a1.451,1.451,0,0,1,.678,1.937A1.379,1.379,0,0,1,29.075,118.494Z" style="fill:#1a1a1a"/><path d="M26.363,130.116a1.491,1.491,0,0,1-.63-.145L1.811,118.591a1.451,1.451,0,0,1,1.259-2.615l23.922,11.38a1.451,1.451,0,0,1,.678,1.937A1.377,1.377,0,0,1,26.363,130.116Z" style="fill:#1a1a1a"/><path d="M25.249,142.077a1.491,1.491,0,0,1-.63-.145L1.181,130.843a1.451,1.451,0,1,1,1.259-2.615l23.438,11.089a1.451,1.451,0,0,1,.678,1.937A1.425,1.425,0,0,1,25.249,142.077Z" style="fill:#1a1a1a"/><path d="M25.685,152.15a1.491,1.491,0,0,1-.63-.145L1.617,140.383a1.452,1.452,0,0,1,1.259-2.616L26.314,149.39a1.45,1.45,0,0,1,.678,1.937A1.428,1.428,0,0,1,25.685,152.15Z" style="fill:#1a1a1a"/><path d="M28.639,162.9a1.708,1.708,0,0,1-.678-.146L4.377,150.794a1.44,1.44,0,1,1,1.308-2.566l23.583,11.961a1.406,1.406,0,0,1,.63,1.937A1.346,1.346,0,0,1,28.639,162.9Z" style="fill:#1a1a1a"/></g></g></g></g></g><!--ITEM 8--><g><defs><clipPath id="clip-path-id-viewbox-item-8"><rect x="0.0" y="0.0" width="168.708" height="180.528"/></clipPath></defs><g transform="translate(1961.0 1592.0) rotate(-125.19953189817251 223.5 241.5) scale(2.649548332029305 2.67548524328636)"><g clip-path="url(#clip-path-id-viewbox-item-8)" transform="translate(-0.0 -0.0)"><title>coin</title><g id="Layer_2-i8" data-name="Layer 2"><g id="coin-i8"><path d="M154.837,21.593a29.046,29.046,0,0,0-13.511-5.666c-2.808-3.293-7.845-4.6-11.283-7.264-22.131-17.094-66.247,2.906-98.6,44.7S-9.231,142.9,12.9,160.044a75.388,75.388,0,0,0,22.567,10.992,27.756,27.756,0,0,0,2.227,1.937c22.131,17.1,66.247-2.905,98.6-44.7C168.639,86.436,176.92,38.688,154.837,21.593Z" style="fill:#fece2f"/><path d="M43.99,58.639C70.866,23.918,105.927,4.208,129.7,8.373,107.476-8.334,63.6,11.714,31.4,53.312-.95,95.1-9.279,142.852,12.852,160A74.349,74.349,0,0,0,33.772,170.5a59.253,59.253,0,0,1-8.329-5.182C3.312,148.228,11.641,100.431,43.99,58.639Z" style="fill:#fff"/><path d="M110.818,21.206c-12.591,5.424-25.86,14.576-38.3,26.779l44.7,101.26a177.827,177.827,0,0,0,19.08-20.969,175.836,175.836,0,0,0,11.622-16.949Z" style="fill:#fff"/><path d="M32.755,107.017l30.751,71.574c9.007-1.211,18.886-4.891,28.958-10.751L51.108,73.264A161.41,161.41,0,0,0,32.755,107.017Z" style="fill:#fff"/><path d="M57.162,180.528c-7.942,0-14.867-2.131-20.388-6.441-11.138-8.62-15.3-24.794-11.67-45.472,3.535-20.387,14.188-42.809,29.975-63.245s34.867-36.319,53.705-44.842c19.128-8.669,35.835-8.717,46.973-.1s15.3,24.794,11.671,45.472c-3.535,20.387-14.189,42.809-29.976,63.245h0c-15.787,20.387-34.867,36.319-53.7,44.842C74.111,178.349,65.152,180.528,57.162,180.528ZM135.273,16.9c-7.554,0-16.126,2.082-25.327,6.247-18.4,8.329-37.094,23.971-52.591,44.019C25.539,108.276,17.113,155.2,38.566,171.811s64.746-3.341,96.562-44.407h0c15.5-20.048,25.956-42.034,29.394-61.937,3.39-19.612-.338-34.77-10.6-42.663C148.881,18.833,142.585,16.9,135.273,16.9Z" style="fill:#1a1a1a"/><path d="M62.1,166.484a21.713,21.713,0,0,1-13.511-4.213c-8.184-6.344-10.605-19.031-6.828-35.641,3.729-16.272,12.978-34.48,26-51.381,13.075-16.852,28.426-30.411,43.2-38.063,15.158-7.845,27.99-8.668,36.223-2.324s10.6,19.031,6.828,35.642c-3.729,16.271-12.978,34.479-26.005,51.38-13.075,16.852-28.426,30.411-43.2,38.063C76.387,164.257,68.687,166.484,62.1,166.484ZM133.675,33.506c-6.1,0-13.366,2.082-21.356,6.247-14.431,7.506-29.443,20.726-42.228,37.24s-21.84,34.382-25.472,50.218c-3.535,15.448-1.5,27.07,5.763,32.687s19.031,4.7,33.075-2.615c14.431-7.506,29.443-20.726,42.228-37.24h0c12.784-16.561,21.84-34.382,25.472-50.217,3.535-15.448,1.5-27.071-5.763-32.688A18.588,18.588,0,0,0,133.675,33.506Z" style="fill:#1a1a1a"/><path d="M146.314,35.976a5.937,5.937,0,0,0-.678-.485c9.2,15.836-.339,49.153-24.019,79.71-26.344,34.044-60.388,52.01-76.707,40.629a18.409,18.409,0,0,0,4.552,5.279c15.981,12.4,50.654-5.569,77.385-40.145S162.295,48.373,146.314,35.976Z" style="fill:#1a1a1a"/><path d="M40.6,176.363a1.359,1.359,0,0,1-.726-.194L8.493,158.688a1.144,1.144,0,0,1-.435-.388C-7.875,137.429.406,94.039,27.719,55.1,40.551,36.8,56.532,21.3,72.61,11.521,88.639,1.738,104.135-1.99,116.242,1.012a.683.683,0,0,1,.29.1L148.2,15.976a1.451,1.451,0,0,1-1.259,2.615L115.418,3.772C91.593-2.039,55.757,20.237,30.14,56.751,17.162,75.2,8.106,95.54,4.619,113.99c-3.39,17.87-1.4,32.882,5.618,42.276L41.375,173.6a1.486,1.486,0,0,1,.581,1.985A1.667,1.667,0,0,1,40.6,176.363Z" style="fill:#1a1a1a"/><path d="M129.317,17.186a1.491,1.491,0,0,1-.63-.145l-13.123-6.247L100.6,3.772a1.451,1.451,0,1,1,1.259-2.615l14.964,7.022,13.123,6.247a1.451,1.451,0,0,1,.678,1.937A1.515,1.515,0,0,1,129.317,17.186Z" style="fill:#1a1a1a"/><path d="M111.4,22.513a1.491,1.491,0,0,1-.63-.145l-13.026-6.1L82.779,9.245a1.452,1.452,0,0,1,1.259-2.616L99,13.651l13.027,6.1a1.451,1.451,0,0,1,.677,1.937A1.514,1.514,0,0,1,111.4,22.513Z" style="fill:#1a1a1a"/><path d="M97.259,29.729a1.492,1.492,0,0,1-.63-.146L69.123,16.654a1.451,1.451,0,1,1,1.259-2.615L97.888,26.968a1.452,1.452,0,0,1,.678,1.938A1.428,1.428,0,0,1,97.259,29.729Z" style="fill:#1a1a1a"/><path d="M86.508,37.09a1.492,1.492,0,0,1-.63-.146L58.711,24.353a1.463,1.463,0,1,1,1.211-2.663L87.089,34.281a1.473,1.473,0,0,1-.581,2.809Z" style="fill:#1a1a1a"/><path d="M74.692,46.533a1.676,1.676,0,0,1-.63-.146L46.992,33.893A1.463,1.463,0,0,1,48.2,31.23l27.07,12.494a1.473,1.473,0,0,1-.581,2.809Z" style="fill:#1a1a1a"/><path d="M65.249,55.249a1.491,1.491,0,0,1-.63-.145L39.728,43.385a1.451,1.451,0,0,1,1.259-2.615L65.878,52.489a1.451,1.451,0,0,1,.678,1.937A1.377,1.377,0,0,1,65.249,55.249Z" style="fill:#1a1a1a"/><path d="M56.1,65.661a1.486,1.486,0,0,1-.629-.145L31.108,54.135a1.463,1.463,0,0,1,1.211-2.663l24.358,11.38a1.473,1.473,0,0,1-.581,2.809Z" style="fill:#1a1a1a"/><path d="M49.268,75.637a1.488,1.488,0,0,1-.629-.146L24.329,64.063a1.451,1.451,0,1,1,1.259-2.615L49.9,72.876a1.451,1.451,0,0,1,.678,1.937A1.515,1.515,0,0,1,49.268,75.637Z" style="fill:#1a1a1a"/><path d="M43.506,85.855a1.492,1.492,0,0,1-.63-.146L17.985,74.087A1.463,1.463,0,0,1,19.2,71.424L44.087,83.046a1.473,1.473,0,0,1-.581,2.809Z" style="fill:#1a1a1a"/><path d="M37.549,96.847a1.483,1.483,0,0,1-.629-.145L12.561,85.08a1.451,1.451,0,1,1,1.259-2.615L38.179,94.087a1.451,1.451,0,0,1,.678,1.937A1.38,1.38,0,0,1,37.549,96.847Z" style="fill:#1a1a1a"/><path d="M32.852,107.743a1.491,1.491,0,0,1-.63-.145L7.864,95.976a1.451,1.451,0,1,1,1.259-2.615l24.358,11.622a1.451,1.451,0,0,1,.678,1.937A1.426,1.426,0,0,1,32.852,107.743Z" style="fill:#1a1a1a"/><path d="M29.075,118.494a1.491,1.491,0,0,1-.63-.145L4.522,106.968a1.451,1.451,0,1,1,1.26-2.615L29.7,115.734a1.451,1.451,0,0,1,.678,1.937A1.379,1.379,0,0,1,29.075,118.494Z" style="fill:#1a1a1a"/><path d="M26.363,130.116a1.491,1.491,0,0,1-.63-.145L1.811,118.591a1.451,1.451,0,0,1,1.259-2.615l23.922,11.38a1.451,1.451,0,0,1,.678,1.937A1.377,1.377,0,0,1,26.363,130.116Z" style="fill:#1a1a1a"/><path d="M25.249,142.077a1.491,1.491,0,0,1-.63-.145L1.181,130.843a1.451,1.451,0,1,1,1.259-2.615l23.438,11.089a1.451,1.451,0,0,1,.678,1.937A1.425,1.425,0,0,1,25.249,142.077Z" style="fill:#1a1a1a"/><path d="M25.685,152.15a1.491,1.491,0,0,1-.63-.145L1.617,140.383a1.452,1.452,0,0,1,1.259-2.616L26.314,149.39a1.45,1.45,0,0,1,.678,1.937A1.428,1.428,0,0,1,25.685,152.15Z" style="fill:#1a1a1a"/><path d="M28.639,162.9a1.708,1.708,0,0,1-.678-.146L4.377,150.794a1.44,1.44,0,1,1,1.308-2.566l23.583,11.961a1.406,1.406,0,0,1,.63,1.937A1.346,1.346,0,0,1,28.639,162.9Z" style="fill:#1a1a1a"/></g></g></g></g></g><!--ITEM 9--><g><defs><clipPath id="clip-path-id-viewbox-item-9"><rect x="0.0" y="0.0" width="964.39" height="781.783"/></clipPath></defs><g transform="translate(317.0 228.0) rotate(0.0 997.0 807.0) scale(2.067628241686455 2.0645115076690077)"><g clip-path="url(#clip-path-id-viewbox-item-9)" transform="translate(-0.0 -0.0)"><g id="aa005218-8cf3-4944-8ba4-8f92c2377966-i9" data-name="Layer 2"><g id="b297cc3d-2a29-4313-9bff-103c8e95db0a-i9" data-name="office_worker_businessman"><path d="M107.23,678.258s17.789-7.116,23.126-8.895c-1.779-6.226-15.121-39.135-15.121-39.135l-24.015,8S93,651.574,107.23,678.258Z" fill="#fece2f"/><path d="M460.6,496.764s-16.957,14.488-17.045,26.43c-.12,16.467-10.853,35.529-30.088,52.117-22.322,19.249-29.569,45.4-33.9,56.452,60.015-59.982,108.374-123.04,108.374-123.04Z" fill="#fff"/><path d="M962.43,671.587c-2.668-8.895-14.675-4.892-19.567,0-4.972,4.972-79.779,21.27-91.613,16.01-8-3.558-25.794-26.683-25.794-26.683l-39.275,21.934S809,706.72,811.67,710.278s16.7,35.014,23.125,43.582c8,10.674,13.342,16.9,32.02-.889,18.679-14.231,39.581-27.128,64.485-45.806S965.1,680.481,962.43,671.587Z" fill="#fece2f"/><path d="M794.356,691.549c11.579-15.65,35.41-25.237,35.41-25.237l-9.007-10.884-36.177,25.765Z" fill="#1a1a1a"/><path d="M747.185,497.256c-58.7-67.6-225.919-121.854-225.919-121.854l-158.132-1.1c-13.342,41.8-15.244,80.542-19.756,114.951-7.116,54.256-22.015,100.623-88.945,91.613-46.251-6.226-144.089,35.577-144.089,35.577l24.014,64.04s92.5-32.02,164.548-26.683,91.612-24.9,186.783-142.311l1.242-2.05c25.982,11.267,49.1,15.989,85.923,24.286,63.151,14.231,120.075,46.251,208.13,152.1,21.347-9.784,68.743-39.109,68.743-39.109S805.888,564.854,747.185,497.256Z" fill="#1a1a1a"/><path d="M370.692,638.13c7.3-10,4.478-26.466-13.169-22.231s-19.411,20.814-48,22.231-36,10.357-53.176,9.769-40.086,11.115-59.551,15.646c37.226-6.685,55.463-8.967,67.021-9.617s33.97-.676,44.735.368S352.919,653.537,370.692,638.13Z" fill="#fece2f"/><path d="M426.229,375.4c8.588,29.791-25.647,38.3-35.529,41.438-23.839,7.562-27.885,23.1-21.4,47.585s-12.347,29.927-9.627,44.786-12.3,43.06-45.21,57.257c31.66-25.342,32.87-120.638,37.187-143.162,3.312-17.286,6.635-34.409,11.482-49.006C369.823,374.457,426.229,375.4,426.229,375.4Z" fill="#fece2f"/><path d="M119.053,639.252c23.994,2.165,38.941-17.471,59.412-30.882s36.47-17.53,54.823-15.765,26.941-9.177,37.412-10c-27.06-2.371-26.817-5.574-64.409,2.448s-95.5,31.464-95.5,31.464Z" fill="#fff"/><path d="M502.7,375.193c2.47,7.776,154.863,57.824,220.47,114.353,9.247,7.967,33.177,21.831,38.1,46.836,4.49,22.811,18.395,30.512,24.912,46.576,10.911,26.9,4.048,40.706,12.519,57.411,11.458,22.6,23.941,21.077,23.941,21.077l27.086-14.737s-36.8-61.785-47.523-77.23-59.2-81.711-78.41-94.351-56.918-41.523-109.859-62.876-99.706-40.408-99.706-40.408Z" fill="#fff"/><path d="M68.655,781.783c-12.682,0-15.262-8.141-18.475-21.8-3.058-13-2.88-35.63-2.751-52.158.022-2.855.043-5.481.043-7.778,0-14.13-6.286-34.484-10.042-46.645l-.565-1.833a6.24,6.24,0,0,1,1.223-5.962c7.065-8.776,37.786-10.454,46.141-9.761,10.2.853,30.59-6.831,30.8-6.908l1.065,2.8a150.333,150.333,0,0,1-20.279,5.972c-.445,18.456,7.191,27.626,12.268,33.721a36.084,36.084,0,0,1,3.568,4.742l.265.463-.088.527c-.869,5.218-4.649,10.113-12.179,19.867L97.3,700.074c-8.749,11.375-15.68,45.5-14.814,55.885,1.681,20.172-4.641,25.073-10.24,25.633Q70.327,781.784,68.655,781.783ZM79.707,638.689c-12.03,0-34.377,2.708-39.282,8.8a3.237,3.237,0,0,0-.693,3.2l.565,1.831c3.805,12.323,10.175,32.948,10.175,47.53,0,2.3-.021,4.938-.043,7.8-.121,15.453-.3,38.8,2.671,51.448,3.682,15.649,5.968,20.6,18.848,19.309,7.718-.772,8.365-12.606,7.549-22.4-.89-10.685,5.986-45.691,15.427-57.964l2.345-3.041c6.939-8.987,10.558-13.675,11.493-18a42.319,42.319,0,0,0-2.99-3.85c-5.307-6.374-13.264-15.927-12.974-35.087a37.836,37.836,0,0,1-8.818.568C82.8,638.74,81.346,638.689,79.707,638.689Z" fill="#1a1a1a"/><path d="M134.359,681.981a1.5,1.5,0,0,1-1.405-.973l-24.015-64.04a1.5,1.5,0,0,1,.815-1.906c4.011-1.713,98.743-41.892,144.88-35.684,23.432,3.151,41.352-.312,54.785-10.594,21.507-16.461,28.317-48.047,32.472-79.729.981-7.484,1.826-15.054,2.72-23.07,3.1-27.8,6.615-59.306,17.094-92.141a1.5,1.5,0,0,1,2.858.912c-10.389,32.551-13.886,63.9-16.971,91.561-.9,8.03-1.741,15.615-2.727,23.129-4.239,32.322-11.247,64.594-33.622,81.721-14.1,10.793-32.748,14.451-57.009,11.183-42.439-5.715-130.151,29.992-141.979,34.915l23,61.332c11.859-3.938,97.037-31.237,163.762-26.295,66.994,4.956,88.9-22.152,170.419-123.037q7.713-9.548,16.161-19.978a1.5,1.5,0,1,1,2.33,1.889q-8.459,10.436-16.158,19.975C389.472,633,367.345,660.368,298.8,655.294c-70.9-5.251-163.023,26.286-163.946,26.6A1.475,1.475,0,0,1,134.359,681.981Z" fill="#1a1a1a"/><path d="M20.606,360.182,131.879,244.309c3.4-3.543,9.5-3.209,13.618.745L322.88,415.4c4.118,3.955,4.7,10.033,1.3,13.576L212.9,544.845" fill="#fece2f"/><path d="M212.9,546.345a1.5,1.5,0,0,1-1.082-2.54L323.094,427.933a6.785,6.785,0,0,0,1.761-5.452,9.669,9.669,0,0,0-3.014-6L144.458,246.137a9.67,9.67,0,0,0-6.12-2.769,6.782,6.782,0,0,0-5.376,1.98L21.688,361.221a1.5,1.5,0,0,1-2.164-2.079L130.8,243.27a9.722,9.722,0,0,1,7.7-2.9,12.672,12.672,0,0,1,8.034,3.6L323.919,414.314a12.668,12.668,0,0,1,3.922,7.882,9.742,9.742,0,0,1-2.583,7.816L213.985,545.884A1.5,1.5,0,0,1,212.9,546.345Z" fill="#1a1a1a"/><rect x="236.318" y="360.622" width="26.84" height="10.987" rx="5" transform="translate(332.029 -69.359) rotate(45)" fill="#fff"/><path d="M255.342,378.915a6.483,6.483,0,0,1-4.6-1.9h0l-11.907-11.907a6.5,6.5,0,0,1,0-9.192l.7-.7a6.5,6.5,0,0,1,9.193,0l11.907,11.907a6.509,6.509,0,0,1,0,9.192l-.7.7A6.483,6.483,0,0,1,255.342,378.915Zm-2.475-4.022a3.5,3.5,0,0,0,4.951,0l.7-.7a3.505,3.505,0,0,0,0-4.95l-11.907-11.907a3.586,3.586,0,0,0-4.951,0l-.7.7a3.5,3.5,0,0,0,0,4.95Z" fill="#1a1a1a"/><rect x="185.463" y="311.112" width="26.84" height="10.987" rx="5" transform="translate(282.125 -47.9) rotate(45)" fill="#fff"/><path d="M204.487,329.408a6.455,6.455,0,0,1-4.6-1.9L187.984,315.6a6.506,6.506,0,0,1,0-9.192l.7-.7a6.5,6.5,0,0,1,9.191,0l11.907,11.907a6.506,6.506,0,0,1,0,9.192l-.7.7A6.457,6.457,0,0,1,204.487,329.408ZM193.278,306.8a3.477,3.477,0,0,0-2.475,1.025l-.7.7a3.5,3.5,0,0,0,0,4.949l11.907,11.908a3.584,3.584,0,0,0,4.95,0l.7-.7a3.5,3.5,0,0,0,0-4.949l-11.907-11.907A3.477,3.477,0,0,0,193.278,306.8Z" fill="#1a1a1a"/><path d="M183.7,562,4.229,389.662a8.9,8.9,0,0,1-.255-12.576L110.8,265.661a8.9,8.9,0,0,1,12.576-.255L302.842,437.748a8.894,8.894,0,0,1,.254,12.576L196.271,561.75A8.894,8.894,0,0,1,183.7,562Z" fill="#fece2f"/><path d="M189.85,565.983a10.323,10.323,0,0,1-7.195-2.9L3.19,390.745a10.407,10.407,0,0,1-.3-14.7L109.717,264.623a10.407,10.407,0,0,1,14.7-.3L303.881,436.666a10.4,10.4,0,0,1,.3,14.7L197.354,562.788a10.32,10.32,0,0,1-7.288,3.193C189.993,565.983,189.921,565.983,189.85,565.983ZM117.217,264.43a7.374,7.374,0,0,0-5.335,2.27L5.057,378.125a7.4,7.4,0,0,0,.211,10.456L184.734,560.923a7.4,7.4,0,0,0,10.455-.212L302.014,449.286a7.395,7.395,0,0,0-.211-10.456L122.337,266.488A7.371,7.371,0,0,0,117.217,264.43Z" fill="#1a1a1a"/><path d="M246.328,362.109s3.952-3.507,8.805-8.152c8.225-7.874.427-14.531.427-14.531l-33.513-28.4c-5.912-5.373-13.984,3.6-21.126,10.489-6.294.97-9.4-4-6.159-7.981,6.274-7.691,19.8-22.12,25.713-16.747l49.473,42.305s7.529,6.386-.427,14.531-15.846,16.1-15.846,16.1C249.28,373.649,241.667,367.293,246.328,362.109Z" fill="#fff"/><path d="M250.517,372.432a7.4,7.4,0,0,1-5.131-2.193,6.353,6.353,0,0,1-.174-9.133,1.226,1.226,0,0,1,.12-.119c.039-.035,3.989-3.544,8.764-8.114,2.247-2.151,3.358-4.361,3.305-6.568a8.834,8.834,0,0,0-2.82-5.743l-33.5-28.391c-4.075-3.707-9.7,1.219-17.217,8.574-.639.625-1.272,1.245-1.9,1.849a1.5,1.5,0,0,1-.812.4c-3.726.577-6.953-.67-8.426-3.248a6.264,6.264,0,0,1,.877-7.163c4.367-5.354,15.365-17.867,23.154-18.448a6.083,6.083,0,0,1,4.73,1.539l49.439,42.276a11.471,11.471,0,0,1,3.737,7.594c.148,3.14-1.22,6.211-4.066,9.124-7.869,8.056-15.774,16.031-15.854,16.11A6.235,6.235,0,0,1,250.517,372.432Zm-3.126-9.261a3.392,3.392,0,0,0,.12,4.951,3.722,3.722,0,0,0,5.165.484c.013-.016,7.911-7.983,15.771-16.031,2.232-2.284,3.314-4.592,3.218-6.857a8.525,8.525,0,0,0-2.692-5.486L219.5,297.927a3.119,3.119,0,0,0-2.523-.8c-5.414.4-14.425,9.228-21.053,17.352a3.268,3.268,0,0,0-.6,3.778c.626,1.093,2.24,2.109,4.908,1.832q.756-.736,1.527-1.491c6.961-6.815,14.853-14.54,21.3-8.685l33.473,28.365a11.775,11.775,0,0,1,3.87,7.912c.088,3.1-1.334,6.076-4.229,8.847C251.7,359.323,247.936,362.685,247.391,363.171Z" fill="#1a1a1a"/><path d="M240.882,292.108l-5.306,9.565s-11.727-1.483-14.315,6.131,1.859,11.988,1.859,11.988-3.8,4.887-.119,7.358,5.332.355,5.332.355-1.821,4.414,1.519,5.659a6.419,6.419,0,0,0,5.724-.443s.081,4.218,1.909,4.8,5.5.6,6.31,0-1.657,4.714,2.5,5.862,6.827-3.77,7.3-5.274c3.794-.227,18.713-1.335,11.739-15.16-2.19-4.342-7.344-5.56-7.344-5.56l9.176-12.255Z" fill="#fece2f"/><path d="M262.113,319.859s8.508,2.776,11.806,9.614c2.885,5.981-4.561,16.9-22.128,8.648" fill="#fece2f"/><path d="M255.874,324.451a1.4,1.4,0,0,1-.24-.02,1.5,1.5,0,0,1-1.242-1.718c1.1-6.852,9.479-16.084,9.836-16.474a1.5,1.5,0,1,1,2.215,2.024c-.081.088-8.127,8.959-9.09,14.926A1.5,1.5,0,0,1,255.874,324.451Z" fill="#1a1a1a"/><path d="M256.451,339.666c-6.077,0-14.474-1.583-18.118-6.09-1.721-2.129-3.136-5.826-.091-11.349a1.5,1.5,0,0,1,2.627,1.448c-1.823,3.308-1.889,5.929-.2,8.014,4,4.951,16.4,5.719,20.424,4.5a1.5,1.5,0,0,1,.867,2.873A20.639,20.639,0,0,1,256.451,339.666Z" fill="#1a1a1a"/><path d="M266.329,326.941a1.5,1.5,0,0,1-1.2-.6,33.859,33.859,0,0,0-7.169-7.4,1.5,1.5,0,0,1,1.639-2.513c.145.095,3.6,2.375,7.925,8.1a1.5,1.5,0,0,1-1.2,2.4Z" fill="#1a1a1a"/><path d="M237.484,331.566a1.489,1.489,0,0,1-.605-.128c-15.426-6.811-19.338-15.789-17.855-21.919,1.458-6.03,7.73-9.776,15.589-9.307a1.5,1.5,0,1,1-.175,2.994c-6.363-.365-11.392,2.446-12.5,7.018-1.2,4.953,2.416,12.406,16.15,18.47a1.5,1.5,0,0,1-.606,2.872Z" fill="#1a1a1a"/><path d="M225.7,329.637c-.149,0-.3,0-.447-.016a5.563,5.563,0,0,1-4.05-2.186c-2.549-3.245-.038-6.634,1.647-7.973a1.5,1.5,0,0,1,1.872,2.343h0c-.258.209-2.484,2.091-1.159,3.777a2.564,2.564,0,0,0,1.91,1.047,5.016,5.016,0,0,0,3.343-1.209,1.5,1.5,0,1,1,2.064,2.177A8.071,8.071,0,0,1,225.7,329.637Z" fill="#1a1a1a"/><path d="M232.112,335.317c-.148,0-.3-.006-.446-.016a5.563,5.563,0,0,1-4.051-2.185c-2.548-3.245-.038-6.635,1.647-7.974a1.5,1.5,0,0,1,1.872,2.344h0c-.258.209-2.483,2.091-1.159,3.777a2.564,2.564,0,0,0,1.91,1.045,4.991,4.991,0,0,0,3.343-1.208,1.5,1.5,0,0,1,2.064,2.178A8.068,8.068,0,0,1,232.112,335.317Z" fill="#1a1a1a"/><path d="M273.919,329.473l-2.972,10.68C278.318,346.338,287.735,332.84,273.919,329.473Z" fill="#fece2f"/><path d="M239.647,339.621c-.15,0-.3-.006-.449-.017a5.556,5.556,0,0,1-4.047-2.184c-2.55-3.246-.039-6.636,1.646-7.975a1.5,1.5,0,0,1,1.872,2.344h0c-.258.209-2.484,2.091-1.159,3.777a2.563,2.563,0,0,0,1.908,1.046,5.03,5.03,0,0,0,3.345-1.208,1.5,1.5,0,1,1,2.062,2.178A8.078,8.078,0,0,1,239.647,339.621Z" fill="#1a1a1a"/><path d="M247.685,344.885a5.7,5.7,0,0,1-2.7-.7c-3.641-1.942-2.708-6.057-1.705-7.961a1.5,1.5,0,0,1,2.657,1.392c-.155.3-1.429,2.915.46,3.923a2.559,2.559,0,0,0,2.169.188,4.973,4.973,0,0,0,2.574-2.452,1.5,1.5,0,0,1,2.766,1.162,7.983,7.983,0,0,1-4.335,4.118A5.632,5.632,0,0,1,247.685,344.885Z" fill="#1a1a1a"/><path d="M263.306,342.621a28.777,28.777,0,0,1-12.152-3.143,1.5,1.5,0,0,1,1.275-2.715c7.959,3.742,14.9,3.764,18.572.055a6.014,6.014,0,0,0,1.568-6.693c-2.987-6.191-10.842-8.815-10.921-8.841a1.5,1.5,0,0,1,.931-2.852c.372.122,9.157,3.06,12.692,10.39a9,9,0,0,1-2.138,10.108A13.432,13.432,0,0,1,263.306,342.621Z" fill="#1a1a1a"/><path d="M231.6,311.057a1.5,1.5,0,0,1-1.443-1.912A48.6,48.6,0,0,1,238.38,293.9a1.5,1.5,0,0,1,2.352,1.864,46.18,46.18,0,0,0-7.694,14.209A1.5,1.5,0,0,1,231.6,311.057Z" fill="#1a1a1a"/><path d="M275.042,343.258a7.867,7.867,0,0,1-5.058-1.955,1.5,1.5,0,1,1,1.927-2.3,4.479,4.479,0,0,0,7.553-3.532c-.273-2.068-2.369-3.681-5.9-4.542a1.5,1.5,0,1,1,.711-2.914c6.5,1.583,7.905,5.1,8.164,7.064a7.357,7.357,0,0,1-3.9,7.262A7.224,7.224,0,0,1,275.042,343.258Z" fill="#1a1a1a"/><path d="M183.7,562,4.229,389.662a8.9,8.9,0,0,1-.255-12.576L110.8,265.661a8.9,8.9,0,0,1,12.576-.255L302.842,437.748a8.894,8.894,0,0,1,.254,12.576L196.271,561.75A8.894,8.894,0,0,1,183.7,562Z" fill="#fece2f"/><path d="M189.85,565.983a10.323,10.323,0,0,1-7.195-2.9L3.19,390.745a10.407,10.407,0,0,1-.3-14.7L109.717,264.623a10.407,10.407,0,0,1,14.7-.3L303.881,436.666a10.4,10.4,0,0,1,.3,14.7L197.354,562.788a10.32,10.32,0,0,1-7.288,3.193C189.993,565.983,189.921,565.983,189.85,565.983ZM117.217,264.43a7.374,7.374,0,0,0-5.335,2.27L5.057,378.125a7.4,7.4,0,0,0,.211,10.456L184.734,560.923a7.4,7.4,0,0,0,10.455-.212L302.014,449.286a7.395,7.395,0,0,0-.211-10.456L122.337,266.488A7.371,7.371,0,0,0,117.217,264.43Z" fill="#1a1a1a"/><path d="M521.266,358.5l-155.652-.89c-.183,8.656-7.719,16.357-.6,17.246s85.284,8.156,156.256.543C530.154,374.449,521.266,358.5,521.266,358.5Z" fill="#fece2f"/><path d="M110.969,678.287l-1.252-2.727c.572-.262,14.07-6.441,20.136-7.729l.623,2.933C124.735,671.984,111.106,678.224,110.969,678.287Z" fill="#1a1a1a"/><path d="M189.85,565.983a10.323,10.323,0,0,1-7.195-2.9L3.19,390.745a10.407,10.407,0,0,1-.3-14.7L109.717,264.623a10.407,10.407,0,0,1,14.7-.3L303.881,436.666a10.4,10.4,0,0,1,.3,14.7L197.354,562.788a10.32,10.32,0,0,1-7.288,3.193C189.993,565.983,189.921,565.983,189.85,565.983ZM117.217,264.43a7.374,7.374,0,0,0-5.335,2.27L5.057,378.125a7.4,7.4,0,0,0,.211,10.456L184.734,560.923a7.4,7.4,0,0,0,10.455-.212L302.014,449.286a7.395,7.395,0,0,0-.211-10.456L122.337,266.488A7.371,7.371,0,0,0,117.217,264.43Z" fill="#1a1a1a"/><path d="M740.632,243s2.4-14.9,20.088-24.014c1.983-1.022-1.553-12.6.833-13.447,2.821-1,11.648,8.769,15.088,8.1-.353,10.4-14.029,40.412-27.265,40.412C743.553,246.37,740.632,243,740.632,243Z" fill="#fece2f"/><path d="M627.972,135.227c30.055-.943,36.351-26.187,41.334-16.728s19.55,10.4,15.194-1c-3.516-9.209-1.08-17.093,6.028-21.765a40.264,40.264,0,0,0,18.356-30.785s-29.009-34.359-78.818-14.478-34.322,67.18-34.322,67.18Z" fill="#fece2f"/><path d="M595.449,293.536s4.978,8.932,1.42,24.052.89,26.684-1.779,32.02-14.231,17.789-19.567,22.236c0-5.336-8.895-23.125-10.674-38.246s6.226-25.794,3.516-40.062l-3.516-25.757h25.794Z" fill="#fece2f"/><path d="M735.622,231.312c-55.145,37.357-87.165,62.261-86.72-5.781.494-75.648-30.827-109.794-52.174-123.1-30.241-18.856-96.808.806-121.713,6.143s-104.954,27.573-153.873,66.708S239.313,269.558,233.976,290.9c10.673,8.894,37.357,18.678,37.357,18.678s17.789-60.482,126.3-70.266l.15-.051c-3.545,5.363-31.266,48.07-37.608,81.369-6.779,35.592,6.636,39.883,16.474,41.387s83.526,8.546,123.888,1.649c27.033-4.619,23.581-7.935,26.812-13.438s21.29-29.963,27.766-38.37c5.363-6.961,19-24.728,23.8-39.76,10.573,16.148,25.173,32.43,45.522,48.154,58.7,45.361,137.864-58.7,137.864-58.7A260.756,260.756,0,0,1,735.622,231.312Z" fill="#fff"/><path d="M294.143,199.937c11.5,7.962,80.719-13.392,63.932-48.6C358.075,151.34,310.7,177.857,294.143,199.937Z" fill="#fece2f"/><path d="M565.461,93.543s3.935-18.636,4.646-28.6c0,0,34.8,3.683,49.035,31.433s20.635,27.751,20.635,27.751l-13.5,3.825" fill="#fff"/><path d="M622.253,318.544c5.094-10.233,17.623-11.645,34.212-5.645s25.058,6.176,30.7,3.706,10.908,2.724,10.908,2.724-23.957,14.537-44.962,12.215S622.253,318.544,622.253,318.544Z" fill="#fece2f"/><path d="M626.278,129.454a1.5,1.5,0,0,1-.409-2.943l9.994-2.832c-3.529-2.845-9.424-9.784-18.056-26.616C605.776,73.6,578.237,67.757,571.47,66.655c-.96,10.169-4.388,26.472-4.541,27.2a1.5,1.5,0,1,1-2.936-.619c.039-.185,3.922-18.65,4.619-28.394a1.5,1.5,0,0,1,1.654-1.385c1.454.153,35.775,4.091,50.211,32.24,12.418,24.215,18.672,26.716,19.365,26.925a1.38,1.38,0,0,1,1.521,1.172,1.6,1.6,0,0,1-1.177,1.781l-13.5,3.825A1.535,1.535,0,0,1,626.278,129.454Z" fill="#1a1a1a"/><path d="M618.43,111.321c-2.737-5.475-9.55-20.846-34.866-27.751-23.481-6.4-19.923,9.962-19.923,9.962s11.74-1.067,29.529,6.048c10.318,4.127,22.059,20.222,28.42,27.17,3.321,3.628,4.667.937,4.667.937S621.277,117.013,618.43,111.321Z" fill="#fece2f"/><path d="M110.344,676.924c-.89,5.336-5.337,10.673-14.232,22.236s-16.01,46.251-15.12,56.924-1.334,22.681-8.9,24.015c-14.258,2.516-16.9-5.337-20.457-20.457s-2.668-44.472-2.668-59.593S42.3,663.137,38.743,651.574s34.689-15.12,45.362-14.231a40.388,40.388,0,0,0,10.211-.862C93.613,661.038,106.812,670.733,110.344,676.924Z" fill="#1a1a1a"/><path d="M848.824,766.261c-5.394,0-10.734-6.5-14.869-11.538-.9-1.094-1.748-2.128-2.5-2.98-4.74-5.333-11.054-19.322-15.665-29.538-2.3-5.089-4.466-9.9-5.315-11.026-2.584-3.446-25-26.754-25.231-26.99a1.5,1.5,0,0,1,2.163-2.08c.928.965,22.775,23.678,25.468,27.269,1,1.331,2.71,5.081,5.65,11.593,4.531,10.04,10.736,23.789,15.173,28.78.8.894,1.663,1.95,2.581,3.068,5.576,6.79,10.922,12.632,15.054,9.5,12.222-9.252,26.357-19.068,40.026-28.562,13.206-9.173,26.862-18.659,39.046-27.8,24.976-18.733,32.9-26.265,30.594-33.948-.749-2.5-1.867-3.973-3.419-4.516-2.762-.967-7.293.773-13.859,5.319-11.961,8.28-80.934,21.538-93.075,16.148-8.258-3.67-25.24-25.672-25.96-26.608a1.5,1.5,0,0,1,2.379-1.828c.171.223,17.232,22.331,24.8,25.693,11.4,5.065,79.083-8.211,90.149-15.872,7.617-5.272,12.723-7.024,16.558-5.684,2.487.871,4.27,3.053,5.3,6.487,3,9.992-6.823,18.575-31.667,37.209-12.227,9.17-25.907,18.671-39.135,27.859-13.645,9.477-27.753,19.277-39.926,28.492A7.023,7.023,0,0,1,848.824,766.261Z" fill="#1a1a1a"/><path d="M657.383,333.2a54.2,54.2,0,0,1-33.858-11.761c-57.318-44.29-69.773-92.813-74.4-134.437a1.5,1.5,0,1,1,2.983-.332c4.554,41,16.819,88.791,73.249,132.4a51.735,51.735,0,0,0,39.723,10.616c44.346-5.852,88.656-59.736,95.205-67.988a273.6,273.6,0,0,1-25-28.35q-3.047,2.065-6,4.075c-26.877,18.276-47.554,32.336-61.655,32.338a16.182,16.182,0,0,1-7.753-1.811c-8.678-4.629-12.646-18.111-12.486-42.429.527-80.659-35.818-112.063-51.468-121.822-25.8-16.088-79.921-3.243-109,3.656-4.492,1.067-8.373,1.988-11.608,2.681-33.181,7.11-107.913,30.141-153.251,66.412-49.773,39.818-80.87,93.9-86.4,113.9,9.312,7.3,29.245,15.186,34.746,17.289,1.622-4.3,7.342-17,22.363-30.628,16.6-15.066,48.248-34.094,104.716-39.186a1.5,1.5,0,1,1,.27,2.988c-55.641,5.017-86.706,23.661-102.97,38.419-17.5,15.877-21.983,30.63-22.026,30.777a1.5,1.5,0,0,1-1.956.985c-1.1-.4-27.051-9.977-37.8-18.935a1.5,1.5,0,0,1-.5-1.516c5.912-23.649,40.539-78.72,87.683-116.435,45.777-36.622,121.076-59.842,154.5-67,3.2-.686,7.069-1.6,11.544-2.666,29.5-7,84.412-20.032,111.277-3.282,9.709,6.054,23.629,17.69,34.808,38.744,12.212,23,18.292,51.815,18.072,85.643-.149,22.764,3.416,35.771,10.9,39.763,12.139,6.474,36.044-9.783,66.309-30.363q3.517-2.393,7.172-4.871a1.5,1.5,0,0,1,2.035.333,262.117,262.117,0,0,0,26.51,30.051,1.5,1.5,0,0,1,.173,2.008c-1.976,2.6-48.979,63.722-98.018,70.2A61.9,61.9,0,0,1,657.383,333.2Z" fill="#1a1a1a"/><path d="M450.1,367.768c-29.118,0-57.622-1.807-68.676-3.332-26.849-3.7-25.348-21.6-24.452-32.3l.036-.442c2.266-27.186,19.493-64.5,51.205-110.9a766.891,766.891,0,0,1,46.995-61.62,1.5,1.5,0,1,1,2.268,1.962c-.921,1.065-92.17,107.115-97.478,170.806l-.037.442c-.911,10.873-2.159,25.763,21.873,29.078,12.384,1.709,46.89,3.769,79.486,3.211,53.972-.934,62.015-8.054,62.968-11.072,2.309-7.308,12.26-20.161,22.795-33.767,14.282-18.445,30.468-39.35,29.537-48.837a1.5,1.5,0,0,1,2.987-.293c1.047,10.675-14.814,31.157-30.152,50.967-10.367,13.388-20.159,26.035-22.305,32.834-2.535,8.026-24.666,12.456-65.779,13.167C457.623,367.739,453.854,367.768,450.1,367.768Z" fill="#1a1a1a"/><path d="M572.776,532.415c-63.151-14.231-99.706-23.439-145.068-59.017,23.727,7.247,26.562,15.565,56.7,15.147s11.929,15.7,32.648,18.626,37.67-7.534,56.715,5.65,74.543,45.31,92.123,60.168C646.852,561,605.293,539.034,572.776,532.415Z" fill="#fece2f"/><path d="M453.491,161.491c-13.278,13.573-35.4,25.349-39.847,34.244-5.337,10.673-24.015,6.226-32.02,16.01s-6.226,17.788,4.461,28.845L398.16,238.7S442.551,173.943,453.491,161.491Z" fill="#1a1a1a"/><path d="M575.523,373.345a1.5,1.5,0,0,1-1.5-1.5c0-1.99-1.6-6.505-3.45-11.734-2.746-7.76-6.164-17.416-7.213-26.337-.891-7.567.574-14,1.991-20.229,1.482-6.514,2.882-12.666,1.54-19.729a1.5,1.5,0,1,1,2.947-.56c1.459,7.677-.077,14.427-1.562,20.954-1.361,5.978-2.767,12.159-1.938,19.214,1.011,8.587,4.367,18.068,7.064,25.686,1.43,4.041,2.59,7.32,3.186,9.791,5.774-5.343,14.9-15.443,17.16-19.964,1.018-2.034.791-5.526.5-9.947-.381-5.88-.855-13.2,1.156-21.745,3.364-14.3-1.226-22.9-1.273-22.983a1.5,1.5,0,0,1,2.623-1.457c.215.386,5.22,9.619,1.57,25.127-1.908,8.113-1.45,15.183-1.083,20.865.317,4.873.566,8.722-.814,11.482-2.781,5.564-14.4,18.1-19.949,22.718A1.5,1.5,0,0,1,575.523,373.345Z" fill="#1a1a1a"/><path d="M449.85,380.328c-42.074,0-77.065-2.985-85.027-3.981a4.79,4.79,0,0,1-3.8-2.039c-1.229-2.013-.276-4.617.931-7.912a27.833,27.833,0,0,0,2.156-8.814,1.5,1.5,0,1,1,3,.062,30.691,30.691,0,0,1-2.338,9.785c-.78,2.127-1.663,4.539-1.189,5.318.181.295.752.516,1.61.624,12.225,1.527,88.5,7.769,155.911.54a2.467,2.467,0,0,0,2.212-1.265c1.44-2.78-1.3-9.7-3.363-13.414a1.5,1.5,0,0,1,2.621-1.46c.627,1.126,6.052,11.143,3.406,16.253a5.432,5.432,0,0,1-4.556,2.868A683.651,683.651,0,0,1,449.85,380.328Z" fill="#1a1a1a"/><path d="M780.985,687.318a1.5,1.5,0,0,1-1.155-.541C690.413,579.3,634.215,549.089,572.524,535.186c-62.84-14.161-100.626-23.923-146.464-59.875a1.5,1.5,0,0,1,1.851-2.361c45.331,35.554,82.854,45.243,145.273,59.311,35.723,8.049,65.1,20.979,95.252,41.922C703.188,598.324,739.1,633.228,781.4,683.972c19.523-9.162,58.937-33.251,66.332-37.795-5.762-10.526-47.669-85.747-101.679-147.938C688.3,431.732,522.472,377.37,520.8,376.829a1.5,1.5,0,0,1,.926-2.854c.419.136,42.443,13.841,91.1,35.636,44.975,20.147,104.989,51.535,135.493,86.661C806.459,563.222,850.611,645.18,851.05,646a1.5,1.5,0,0,1-.533,1.983c-.475.294-47.722,29.487-68.908,39.2A1.487,1.487,0,0,1,780.985,687.318Z" fill="#1a1a1a"/><path d="M812.115,712.222a1.5,1.5,0,0,1-.567-2.888c.277-.113,27.817-11.442,36.986-23.479a1.5,1.5,0,0,1,2.387,1.819c-9.665,12.688-37.078,23.964-38.24,24.437A1.489,1.489,0,0,1,812.115,712.222Z" fill="#1a1a1a"/><path d="M962.43,671.587c-2.668-8.895-14.675-4.892-19.567,0-4.972,4.972-79.779,21.27-91.613,16.01-12.007,8.45-27.128,17.344-39.58,22.681,2.668,3.557,16.7,35.014,23.125,43.582,8,10.674,13.342,16.9,32.02-.889,18.679-14.231,39.581-27.128,64.485-45.806S965.1,680.481,962.43,671.587Z" fill="#1a1a1a"/><path d="M876.113,691.516a1.5,1.5,0,0,1-.692-2.831c.122-.063,12.215-6.433,12.646-14.155.195-3.491-2.129-6.887-6.908-10.091-4.083-2.739-9.628-5.329-12.871-2.132-4.48,4.422-2.926,17.491,3.2,26.89a1.5,1.5,0,0,1-2.514,1.639c-7.06-10.836-8.364-25.164-2.792-30.663,2.584-2.551,7.571-4.313,16.648,1.774,5.724,3.838,8.493,8.13,8.233,12.757-.532,9.426-13.7,16.354-14.26,16.644A1.487,1.487,0,0,1,876.113,691.516Z" fill="#1a1a1a"/><path d="M873.348,691.516l-.093,0a1.5,1.5,0,0,1-1.4-1.588c.379-6.2,6.941-17.276,15.752-23.263,6.571-4.466,13.583-5.669,20.269-3.482,6.266,2.048,7.31,5.24,7.082,7.556-.816,8.3-20.129,17.827-31.368,19.182a1.5,1.5,0,1,1-.359-2.979c10.588-1.275,28.152-10.509,28.742-16.5.175-1.779-1.518-3.263-5.028-4.411-5.857-1.916-11.794-.867-17.653,3.112-8.507,5.782-14.145,16.107-14.443,20.965A1.5,1.5,0,0,1,873.348,691.516Z" fill="#1a1a1a"/><path d="M107.254,716.984a5.35,5.35,0,0,1-1.716-.285c-5.494-1.853-8.465-12.721-7.793-21.708a1.5,1.5,0,1,1,2.992.225c-.626,8.372,2.173,17.43,5.76,18.64,2.31.78,4.788-2.4,6.063-4.363,2.733-4.21,3.181-8.072,1.331-11.48-2.542-4.681-9.053-7.555-12.6-7.555a1.5,1.5,0,0,1,0-3c4.312,0,12.007,3.171,15.239,9.123,1.661,3.058,2.757,8.065-1.452,14.547C112.1,715.715,109.364,716.984,107.254,716.984Z" fill="#1a1a1a"/><path d="M106.36,728.656a4.884,4.884,0,0,1-1.64-.289c-7.321-2.609-11.8-23.689-12.627-27.889a1.5,1.5,0,0,1,2.944-.578c2.289,11.664,6.7,24.217,10.69,25.641a2.112,2.112,0,0,0,2.234-.592c2.38-1.974,3.2-6.023,2.207-10.832-1.354-6.523-6.217-14.123-14.031-16.4a1.5,1.5,0,0,1,.838-2.881c9.011,2.622,14.594,11.264,16.13,18.668,1.228,5.915.02,11.055-3.229,13.75A5.446,5.446,0,0,1,106.36,728.656Z" fill="#1a1a1a"/><path d="M114.538,630.718s7.675,33.908,6.448,41.662c9.37-3.017,15.479-4.481,15.479-4.481Z" fill="#1a1a1a"/><path d="M783.467,236.271c17.894-8.79,20.773-12.414,20.983-17.332s8.511-28.15,8.72-30.452S780.644,224.118,783.467,236.271Z" fill="#fece2f"/><path d="M783.468,237.771a1.5,1.5,0,0,1-1.461-1.16c-2.861-12.312,26-46.338,29.82-49.219a1.79,1.79,0,0,1,2.043-.308,1.665,1.665,0,0,1,.794,1.54c-.091,1-1.079,4.112-2.964,9.989-2.377,7.41-5.631,17.559-5.752,20.389-.242,5.687-3.327,9.531-21.819,18.616A1.5,1.5,0,0,1,783.468,237.771Zm26.817-44.6c-7.671,8.588-24.832,30.716-25.486,40.761,16.609-8.333,18-11.406,18.151-15.061.128-3,2.633-11.012,5.894-21.179C809.327,196.188,809.835,194.605,810.285,193.175Z" fill="#1a1a1a"/><path d="M626.258,129.186a1.5,1.5,0,0,1-1.36-.865c-.05-.107-5-10.72-7.81-16.329l-.3-.615c-2.942-5.947-9.833-19.874-33.614-26.36-7.789-2.126-13.362-1.875-16.117.724-2.9,2.736-1.954,7.43-1.944,7.478a1.5,1.5,0,0,1-2.933.631c-.056-.257-1.325-6.359,2.8-10.272,3.6-3.419,9.991-3.908,18.986-1.455,25.083,6.841,32.661,22.157,35.514,27.924l.3.6c2.823,5.646,7.795,16.295,7.844,16.4a1.5,1.5,0,0,1-1.358,2.134Z" fill="#1a1a1a"/><rect x="791.588" y="148.038" width="21.603" height="82.897" transform="translate(414.122 -537.825) rotate(48.618)" fill="#fff"/><path d="M778.432,226.492a1.494,1.494,0,0,1-1.126-.509l-14.281-16.209a1.5,1.5,0,0,1,.133-2.116l62.2-54.8a1.5,1.5,0,0,1,2.116.134L841.755,169.2a1.5,1.5,0,0,1-.134,2.116l-62.2,54.8A1.488,1.488,0,0,1,778.432,226.492Zm-12.165-17.575,12.3,13.958,59.948-52.819-12.3-13.958Z" fill="#1a1a1a"/><path d="M741.505,239.766a1.519,1.519,0,0,1-.414-.057,1.5,1.5,0,0,1-1.029-1.856c4.193-14.634,14.215-18.144,30.816-23.959a1.5,1.5,0,1,1,.992,2.832c-17.445,6.11-25.31,9.342-28.924,21.954A1.5,1.5,0,0,1,741.505,239.766Z" fill="#1a1a1a"/><path d="M794.093,174.658c-9.228-.5-16.731-1-16.622,4.343.088,4.355,5.154,4.023,6.826,4.288" fill="#fece2f"/><path d="M784.3,184.789a1.453,1.453,0,0,1-.236-.019c-.215-.034-.494-.054-.815-.081-2.146-.176-7.175-.586-7.277-5.658a5.09,5.09,0,0,1,1.515-3.936c2.788-2.693,8.716-2.37,16.227-1.96l.462.025a1.5,1.5,0,0,1-.164,3l-.462-.025c-6.239-.34-12.133-.663-13.979,1.121a2.113,2.113,0,0,0-.6,1.719c.04,2,1.554,2.486,4.521,2.728.409.034.765.064,1.039.108a1.5,1.5,0,0,1-.232,2.982Z" fill="#1a1a1a"/><path d="M770.813,195.958c-5.719-.915-13.73-1.888-16.346,2.3s2.943,6.1,7.959,5.092" fill="#fece2f"/><path d="M759.76,205.111c-2.718,0-5.46-.746-6.766-2.633-.576-.832-1.316-2.59.2-5.017,2.916-4.668,10.3-4.192,17.855-2.985a1.5,1.5,0,1,1-.475,2.963c-3.762-.6-12.574-2.011-14.838,1.612-.7,1.115-.381,1.57-.278,1.719.721,1.039,3.57,1.731,6.67,1.108a1.5,1.5,0,1,1,.592,2.941A15.15,15.15,0,0,1,759.76,205.111Z" fill="#1a1a1a"/><path d="M778.585,187.447s-15.607-6.691-17.192.439c-.985,4.433,6.881,5.747,13.176,6.852" fill="#fece2f"/><path d="M774.571,196.238a1.538,1.538,0,0,1-.26-.022l-.258-.045c-5.354-.939-11.421-2-13.493-5.1a4.434,4.434,0,0,1-.631-3.508,5.2,5.2,0,0,1,2.775-3.61c5.1-2.615,15.325,1.627,16.472,2.118a1.5,1.5,0,1,1-1.182,2.758c-3.839-1.644-11.015-3.694-13.923-2.206a2.2,2.2,0,0,0-1.214,1.591,1.432,1.432,0,0,0,.2,1.19c1.359,2.034,7.23,3.063,11.517,3.815l.257.045a1.5,1.5,0,0,1-.257,2.977Z" fill="#1a1a1a"/><path d="M750.61,276.865a1.492,1.492,0,0,1-.677-.162c-19.485-9.874-30.87-33.107-31.345-34.091a1.5,1.5,0,0,1,2.7-1.305c.113.232,11.434,23.311,30,32.72a1.5,1.5,0,0,1-.678,2.838Z" fill="#1a1a1a"/><circle cx="749.853" cy="263.332" r="3.113" fill="#1a1a1a"/><rect x="788.19" y="144.13" width="21.603" height="82.698" transform="translate(409.963 -536.634) rotate(48.618)" fill="#fece2f"/><path d="M775.109,222.418a1.494,1.494,0,0,1-1.126-.509L759.7,205.7a1.5,1.5,0,0,1,.134-2.116l62.05-54.67a1.5,1.5,0,0,1,2.116.134l14.281,16.209a1.5,1.5,0,0,1-.133,2.116L776.1,222.043A1.488,1.488,0,0,1,775.109,222.418Zm-12.166-17.575,12.3,13.958,59.8-52.687-12.3-13.958Z" fill="#1a1a1a"/><path d="M809.839,198.2c-2.067-8.5-12.819-1.65-17.005,3.791-7.295,9.484-9.262,9.731-15.488,10.62-9.726,1.389-25.329,5.931-23.34,19.116v20.713s24.6-2.943,30.536-18.455C792.1,214.236,811.532,205.163,809.839,198.2Z" fill="#fece2f"/><path d="M279.064,296.329a1.493,1.493,0,0,1-.969-.356c-15.412-13.058-38.074-19.57-38.3-19.634a1.5,1.5,0,1,1,.817-2.887c.953.269,23.519,6.757,39.423,20.232a1.5,1.5,0,0,1-.97,2.645Z" fill="#1a1a1a"/><circle cx="244.649" cy="287.347" r="3.113" fill="#1a1a1a"/><path d="M754,253.936a1.5,1.5,0,0,1-.177-2.989c.238-.028,23.772-3.025,29.315-17.5,4.218-11.02,12.11-18.881,17.873-24.621,4.261-4.244,7.941-7.909,7.366-10.273-.527-2.173-1.565-2.631-2.3-2.787-3.176-.671-9.093,3.285-12.058,7.138-7.424,9.652-9.769,10.739-16.576,11.2-8.869.6-15.732,3.4-19.326,7.875a13.616,13.616,0,0,0-2.632,10.992,1.5,1.5,0,1,1-2.966.447,16.492,16.492,0,0,1,3.259-13.317c4.124-5.136,11.747-8.329,21.462-8.989,5.7-.389,7.318-.83,14.4-10.039,3.049-3.965,9.943-9.331,15.056-8.243,1.623.344,3.739,1.492,4.6,5.012.973,4-2.86,7.824-8.165,13.108-5.881,5.857-13.2,13.147-17.188,23.567-6.192,16.174-30.719,19.286-31.76,19.41A1.551,1.551,0,0,1,754,253.936Z" fill="#1a1a1a"/><path d="M632.88,82.706a1.494,1.494,0,0,1-.618-.134c-4.587-2.077-7.894-6.24-8.424-10.6a9.348,9.348,0,0,1,3.724-8.709c2.3-1.815,5.841-2.359,9.456-1.454,3.988,1,7.184,3.447,8.548,6.554a1.5,1.5,0,1,1-2.746,1.2c-.98-2.228-3.482-4.087-6.531-4.849-2.72-.683-5.29-.344-6.872.9a6.349,6.349,0,0,0-2.6,5.99c.4,3.3,3.086,6.605,6.683,8.234a1.5,1.5,0,0,1-.62,2.866Z" fill="#1a1a1a"/><path d="M659.877,74.52a9.948,9.948,0,0,1-6.612-2.344c-3.116-2.656-6.747-5.281-10.012-4.588a1.5,1.5,0,0,1-.619-2.936c5.152-1.089,10.168,3.187,12.577,5.24,1.818,1.551,4.219,2,7.127,1.334,6.191-1.413,12.89-7.458,14.386-10.843a1.5,1.5,0,0,1,1.841-.819c9.9,3.26,28.013,2.2,28.195,2.188a1.484,1.484,0,0,1,1.118.4c3.47,3.258,6.547,4.308,9.147,3.122,4.359-1.994,7.487-10.579,7.12-19.546-.5-12.221-22.828-35.553-41.465-39.53-14.422-3.077-44.431-9.48-71.277,13.978-24.552,21.453-22.052,30.489-16.573,50.287l.4,1.455a1.5,1.5,0,0,1-2.893.8l-.4-1.453c-5.648-20.408-8.483-30.652,17.489-53.346C637.4-6.525,668.406.089,683.307,3.267c18.655,3.981,43.236,27.723,43.836,42.341.366,8.947-2.564,19.513-8.871,22.4-2.546,1.163-6.661,1.515-11.968-3.225-3.275.163-17.911.708-27.471-2-2.491,4.042-9.109,9.836-15.827,11.369A14.08,14.08,0,0,1,659.877,74.52Z" fill="#1a1a1a"/><path d="M647.583,116.616s-2.762-.314-.377,2.009,6.483,4.683,7.323,6.893l5.611-4.837C657.577,117.141,650.6,116.741,647.583,116.616Z" fill="#fff"/><path d="M609.16,80.492a36.192,36.192,0,0,1-5.36-.371,1.5,1.5,0,0,1,.479-2.961c.142.021,14.179,2.18,20.121-5.1a1.5,1.5,0,0,1,2.324,1.9C622.234,79.458,614.407,80.492,609.16,80.492Z" fill="#1a1a1a"/><path d="M631.341,74.508a1.5,1.5,0,0,1-1.491-1.362c-.245-2.637.377-4.464,1.846-5.429,2.5-1.639,6.153.27,6.561.494a1.5,1.5,0,0,1-1.436,2.634h0c-1.02-.551-2.794-1.072-3.48-.621-.448.3-.633,1.261-.5,2.645a1.5,1.5,0,0,1-1.354,1.632A1.345,1.345,0,0,1,631.341,74.508Z" fill="#1a1a1a"/><path d="M627.971,136.726a1.5,1.5,0,0,1-.046-3c16.874-.529,25.812-8.79,31.729-14.256,3.22-2.977,5.344-4.94,7.705-4.54,1.3.225,2.376,1.164,3.275,2.87,2.82,5.353,8.908,7.395,11.641,6.164,2.293-1.037,1.5-4.163.824-5.935-3.671-9.616-1.2-18.422,6.6-23.554a39.115,39.115,0,0,0,17.681-29.555,1.5,1.5,0,0,1,1.5-1.475h.024a1.5,1.5,0,0,1,1.476,1.521,41.411,41.411,0,0,1-19.032,32.015c-6.644,4.368-8.63,11.65-5.45,19.978,2.615,6.849-1.169,9.185-2.391,9.738-4.324,1.959-12.052-.893-15.531-7.5-.406-.769-.827-1.259-1.128-1.311-.908-.164-3.067,1.849-5.162,3.787-5.865,5.418-15.678,14.487-33.671,15.05Z" fill="#1a1a1a"/><path d="M667.507,84.094c2.3-2.464,7.827-1.507,11.51,2.092s3.893,7.283,3.307,9.711-8.69,1.381-11.846-1.214S665.163,86.605,667.507,84.094Z" fill="#fff"/><path d="M365.274,305.685c-2.512,19.464,2.04,51.484,33.746,42.537s12.766,11.353,34.95,10.516,31.895,5.53,42.746,5.925c-45.659.369-78.737,1.454-92.69-1.409s-25.676-5.772-25.942-23.194A83.992,83.992,0,0,1,365.274,305.685Z" fill="#1a1a1a"/><path d="M681.047,75.624c1.231-3.164,3.767-.069,7.032,2.871s6.278,4.2,3.893,6.2S679.791,78.853,681.047,75.624Z" fill="#1a1a1a"/><path d="M678.874,98.772c-3.186,0-7.206-1.169-9.348-2.93a12.929,12.929,0,0,1-4.491-8.394,5.688,5.688,0,0,1,1.375-4.378h0A6.281,6.281,0,0,1,671,81.226a13.153,13.153,0,0,1,9.071,3.888c4.507,4.405,4.263,8.867,3.715,11.135a3.065,3.065,0,0,1-2.214,2.153A8.659,8.659,0,0,1,678.874,98.772Zm-7.669-14.549-.141,0a3.478,3.478,0,0,0-2.46.892h0a2.878,2.878,0,0,0-.575,2.135,9.847,9.847,0,0,0,3.4,6.273c2.555,2.1,8.431,2.692,9.457,1.918.379-1.679.457-4.883-2.921-8.183A10.341,10.341,0,0,0,671.205,84.223Zm-3.7-.129h0Z" fill="#1a1a1a"/><path d="M675.276,97.3c-2.053-2.6.177-10.154,5.131-9.605,0,0,4.341,5.868,1.478,9.047A25.186,25.186,0,0,1,675.276,97.3Z" fill="#1a1a1a"/><path d="M654.529,127.018a1.5,1.5,0,0,1-1.4-.966c-.395-1.042-2.261-2.5-3.906-3.788a38.068,38.068,0,0,1-3.061-2.565c-.53-.517-1.941-1.89-1.238-3.372.613-1.292,2.2-1.261,2.772-1.208,4.562.192,10.917.893,13.662,4.683a1.5,1.5,0,0,1-2.43,1.759c-1.354-1.87-4.7-3-9.969-3.367.65.565,1.39,1.143,2.112,1.707,2.144,1.677,4.169,3.261,4.863,5.084a1.5,1.5,0,0,1-1.4,2.033Z" fill="#1a1a1a"/><path d="M552.005,188.593c-1.151-9.941-7.953-17.894-15.8-13.394s-10.987,13.6-9.522,28.253,9.9,12.138,12.486,22.184-4.324,7.725-2.65,14.954,21.346,16.019,18.207,25.855,17.669,19.329,5.486,38.65c0,0,15.7-17.732,18.255-33.684C572.1,260.74,552.4,226.42,552.005,188.593Z" fill="#1a1a1a"/><path d="M593.786,72.319c-5.785-20.97-9.238-30.668,16.629-53.27S664.158.716,682.993,4.734s42.1,27.625,42.651,40.936S719.157,74.8,706.851,63.249c0,0-18.458,1.13-28.755-2.26-2.386,5.4-16.2,16.575-23.858,10.045-2.925-2.493-7.146-5.79-11.294-4.914,0,0-10.006-6.846-15.6-1.175-3.558,3.609-1.605,8.66-1.605,8.66s-10.591,9.642-24.187,3.249A36.292,36.292,0,0,1,593.786,72.319Z" fill="#1a1a1a"/><path d="M760.826,204.709s-.234,9.393-.416,13.115" fill="#fece2f"/><path d="M760.411,219.324l-.074,0a1.5,1.5,0,0,1-1.425-1.571c.179-3.661.411-12.986.413-13.079a1.5,1.5,0,0,1,3,.074c0,.095-.236,9.454-.417,13.151A1.5,1.5,0,0,1,760.411,219.324Z" fill="#1a1a1a"/><path d="M269.918,289.709a1.5,1.5,0,0,1-1.329-2.194c3.948-7.573,19.821-24.071,27.272-27.342a1.5,1.5,0,0,1,1.207,2.746c-6.871,3.016-22.145,18.936-25.819,25.983A1.5,1.5,0,0,1,269.918,289.709Z" fill="#1a1a1a"/><path d="M255.872,282.284a1.481,1.481,0,0,1-.465-.074,1.5,1.5,0,0,1-.961-1.891c2.712-8.32,26.367-35.4,34.841-40.981a1.5,1.5,0,0,1,1.649,2.506c-8.658,5.7-31.293,32.214-33.638,39.405A1.5,1.5,0,0,1,255.872,282.284Z" fill="#1a1a1a"/><path d="M701.289,273.987a1.5,1.5,0,0,1-.824-2.754c.755-.5,1.672-1.091,2.71-1.764,6.429-4.172,18.394-11.938,23.146-16.5a1.5,1.5,0,0,1,2.078,2.162c-4.957,4.764-16.621,12.335-23.591,16.858-1.032.67-1.946,1.264-2.7,1.756A1.492,1.492,0,0,1,701.289,273.987Z" fill="#1a1a1a"/><path d="M724.054,275.575a1.5,1.5,0,0,1-.851-2.736c.084-.058,8.432-5.806,12.168-9.2a1.5,1.5,0,0,1,2.018,2.22c-3.887,3.532-12.137,9.214-12.486,9.454A1.5,1.5,0,0,1,724.054,275.575Z" fill="#1a1a1a"/></g></g></g></g></g></svg>